<mxfile host="app.diagrams.net" agent="Mozilla/5.0 (X11; Linux x86_64; rv:128.0) Gecko/20100101 Firefox/128.0" version="26.0.6">
  <diagram name="Page-1" id="HHO7tMF4Vck_DR756JE1">
    <mxGraphModel dx="4358" dy="1912" grid="1" gridSize="10" guides="1" tooltips="1" connect="1" arrows="1" fold="1" page="1" pageScale="1" pageWidth="827" pageHeight="1169" math="0" shadow="0">
      <root>
        <mxCell id="0" />
        <mxCell id="1" parent="0" />
        <mxCell id="7w4zLWjS5kB7MF0S2eMy-363" value="" style="rounded=1;whiteSpace=wrap;html=1;fillColor=#f8cecc;strokeColor=#b85450;dashed=1;dashPattern=1 2;" vertex="1" parent="1">
          <mxGeometry x="210" y="130" width="20" height="120" as="geometry" />
        </mxCell>
        <mxCell id="7w4zLWjS5kB7MF0S2eMy-353" value="" style="rounded=1;whiteSpace=wrap;html=1;fillColor=#d5e8d4;strokeColor=#82b366;" vertex="1" parent="1">
          <mxGeometry x="10" y="130" width="20" height="120" as="geometry" />
        </mxCell>
        <mxCell id="7w4zLWjS5kB7MF0S2eMy-352" value="" style="rounded=1;whiteSpace=wrap;html=1;fillColor=#d5e8d4;strokeColor=#82b366;" vertex="1" parent="1">
          <mxGeometry x="170" y="130" width="20" height="120" as="geometry" />
        </mxCell>
        <mxCell id="3cLOkpHJXaenaViT3jhE-11" value="" style="rounded=1;whiteSpace=wrap;html=1;fillColor=#d5e8d4;strokeColor=#82b366;" parent="1" vertex="1">
          <mxGeometry x="50" y="130" width="20" height="120" as="geometry" />
        </mxCell>
        <mxCell id="3cLOkpHJXaenaViT3jhE-10" value="" style="rounded=1;whiteSpace=wrap;html=1;fillColor=#d5e8d4;strokeColor=#82b366;" parent="1" vertex="1">
          <mxGeometry x="130" y="130" width="20" height="120" as="geometry" />
        </mxCell>
        <mxCell id="OHbJW_l4e2RDl2kT1JHy-32" value="" style="rounded=1;whiteSpace=wrap;html=1;fillColor=#d5e8d4;strokeColor=#82b366;" parent="1" vertex="1">
          <mxGeometry x="90" y="130" width="20" height="120" as="geometry" />
        </mxCell>
        <mxCell id="3cLOkpHJXaenaViT3jhE-6" style="rounded=0;orthogonalLoop=1;jettySize=auto;html=1;entryX=0.5;entryY=1;entryDx=0;entryDy=0;fillColor=#e1d5e7;strokeColor=#9673a6;exitX=1;exitY=0;exitDx=0;exitDy=0;" parent="1" source="OHbJW_l4e2RDl2kT1JHy-7" edge="1">
          <mxGeometry relative="1" as="geometry">
            <mxPoint x="340" y="440" as="targetPoint" />
          </mxGeometry>
        </mxCell>
        <mxCell id="7w4zLWjS5kB7MF0S2eMy-384" value="&lt;font style=&quot;font-size: 11px;&quot;&gt;&lt;span style=&quot;color: light-dark(rgb(97, 53, 131), rgb(237, 237, 237));&quot;&gt;w&lt;sub&gt;o1&lt;/sub&gt;&lt;/span&gt;&lt;/font&gt;" style="edgeLabel;html=1;align=center;verticalAlign=middle;resizable=0;points=[];" vertex="1" connectable="0" parent="3cLOkpHJXaenaViT3jhE-6">
          <mxGeometry x="0.4505" y="-1" relative="1" as="geometry">
            <mxPoint x="-34" y="26" as="offset" />
          </mxGeometry>
        </mxCell>
        <mxCell id="OHbJW_l4e2RDl2kT1JHy-30" value="" style="endArrow=classic;html=1;rounded=0;fillColor=#f5f5f5;strokeColor=#666666;" parent="1" edge="1">
          <mxGeometry width="50" height="50" relative="1" as="geometry">
            <mxPoint x="-20" y="260" as="sourcePoint" />
            <mxPoint x="320" y="260" as="targetPoint" />
          </mxGeometry>
        </mxCell>
        <mxCell id="OHbJW_l4e2RDl2kT1JHy-36" value="" style="endArrow=classic;html=1;rounded=0;fillColor=#f5f5f5;strokeColor=#666666;" parent="1" edge="1">
          <mxGeometry width="50" height="50" relative="1" as="geometry">
            <mxPoint x="180" y="260" as="sourcePoint" />
            <mxPoint x="180" y="110" as="targetPoint" />
          </mxGeometry>
        </mxCell>
        <mxCell id="OHbJW_l4e2RDl2kT1JHy-34" style="edgeStyle=orthogonalEdgeStyle;rounded=0;orthogonalLoop=1;jettySize=auto;html=1;entryX=0.401;entryY=0.97;entryDx=0;entryDy=0;fillColor=#d5e8d4;strokeColor=#82b366;endArrow=classic;endFill=1;entryPerimeter=0;exitX=0.5;exitY=1;exitDx=0;exitDy=0;" parent="1" source="7w4zLWjS5kB7MF0S2eMy-353" edge="1">
          <mxGeometry relative="1" as="geometry">
            <Array as="points">
              <mxPoint x="20" y="780" />
              <mxPoint x="336" y="780" />
            </Array>
            <mxPoint x="336.03999999999996" y="758.8000000000002" as="targetPoint" />
          </mxGeometry>
        </mxCell>
        <mxCell id="OHbJW_l4e2RDl2kT1JHy-37" value="&lt;font style=&quot;font-size: 7px;&quot;&gt;Time&lt;/font&gt;" style="text;html=1;align=center;verticalAlign=middle;whiteSpace=wrap;rounded=0;" parent="1" vertex="1">
          <mxGeometry x="300" y="250" width="60" height="30" as="geometry" />
        </mxCell>
        <mxCell id="OHbJW_l4e2RDl2kT1JHy-48" value="20" style="rounded=0;whiteSpace=wrap;html=1;fillColor=#d5e8d4;strokeColor=#82b366;" parent="1" vertex="1">
          <mxGeometry x="320" y="720" width="40" height="40" as="geometry" />
        </mxCell>
        <mxCell id="OHbJW_l4e2RDl2kT1JHy-61" value="" style="endArrow=none;html=1;rounded=0;startArrow=none;startFill=0;" parent="1" edge="1">
          <mxGeometry width="50" height="50" relative="1" as="geometry">
            <mxPoint y="200" as="sourcePoint" />
            <mxPoint x="20" y="210" as="targetPoint" />
          </mxGeometry>
        </mxCell>
        <mxCell id="OHbJW_l4e2RDl2kT1JHy-62" value="" style="endArrow=none;html=1;rounded=0;startArrow=oval;startFill=1;" parent="1" edge="1">
          <mxGeometry width="50" height="50" relative="1" as="geometry">
            <mxPoint x="20" y="210" as="sourcePoint" />
            <mxPoint x="60" y="180" as="targetPoint" />
          </mxGeometry>
        </mxCell>
        <mxCell id="OHbJW_l4e2RDl2kT1JHy-65" value="" style="endArrow=none;html=1;rounded=0;startArrow=oval;startFill=1;" parent="1" edge="1">
          <mxGeometry width="50" height="50" relative="1" as="geometry">
            <mxPoint x="140" y="190" as="sourcePoint" />
            <mxPoint x="180" y="200" as="targetPoint" />
          </mxGeometry>
        </mxCell>
        <mxCell id="OHbJW_l4e2RDl2kT1JHy-67" value="" style="endArrow=none;html=1;rounded=0;startArrow=oval;startFill=1;dashed=1;" parent="1" edge="1">
          <mxGeometry width="50" height="50" relative="1" as="geometry">
            <mxPoint x="180" y="200" as="sourcePoint" />
            <mxPoint x="220" y="170" as="targetPoint" />
          </mxGeometry>
        </mxCell>
        <mxCell id="OHbJW_l4e2RDl2kT1JHy-69" value="&lt;font style=&quot;font-size: 7px;&quot;&gt;Temperature&lt;/font&gt;" style="text;html=1;align=center;verticalAlign=middle;whiteSpace=wrap;rounded=0;" parent="1" vertex="1">
          <mxGeometry x="-40" y="176" width="60" height="30" as="geometry" />
        </mxCell>
        <mxCell id="OHbJW_l4e2RDl2kT1JHy-70" value="" style="endArrow=none;html=1;rounded=0;startArrow=oval;startFill=1;" parent="1" edge="1">
          <mxGeometry width="50" height="50" relative="1" as="geometry">
            <mxPoint x="60" y="180" as="sourcePoint" />
            <mxPoint x="100" y="150" as="targetPoint" />
          </mxGeometry>
        </mxCell>
        <mxCell id="OHbJW_l4e2RDl2kT1JHy-71" value="" style="endArrow=oval;html=1;rounded=0;endFill=1;startArrow=oval;startFill=1;" parent="1" edge="1">
          <mxGeometry width="50" height="50" relative="1" as="geometry">
            <mxPoint x="100" y="150" as="sourcePoint" />
            <mxPoint x="100" y="150" as="targetPoint" />
          </mxGeometry>
        </mxCell>
        <mxCell id="OHbJW_l4e2RDl2kT1JHy-72" value="" style="endArrow=none;html=1;rounded=0;startArrow=oval;startFill=1;" parent="1" edge="1">
          <mxGeometry width="50" height="50" relative="1" as="geometry">
            <mxPoint x="100" y="150" as="sourcePoint" />
            <mxPoint x="140" y="190" as="targetPoint" />
          </mxGeometry>
        </mxCell>
        <mxCell id="OHbJW_l4e2RDl2kT1JHy-73" style="rounded=0;orthogonalLoop=1;jettySize=auto;html=1;fillColor=#f8cecc;strokeColor=#b85450;exitX=0.5;exitY=0;exitDx=0;exitDy=0;entryX=0.5;entryY=1;entryDx=0;entryDy=0;" parent="1" source="OHbJW_l4e2RDl2kT1JHy-48" target="OHbJW_l4e2RDl2kT1JHy-1" edge="1">
          <mxGeometry relative="1" as="geometry">
            <mxPoint x="249.9" y="410" as="sourcePoint" />
            <mxPoint x="400.9" y="400" as="targetPoint" />
          </mxGeometry>
        </mxCell>
        <mxCell id="OHbJW_l4e2RDl2kT1JHy-74" value="&lt;font color=&quot;#a51d2d&quot;&gt;w&lt;sub&gt;i1&lt;/sub&gt;&lt;/font&gt;" style="edgeLabel;html=1;align=center;verticalAlign=middle;resizable=0;points=[];fontFamily=Times New Roman;" parent="OHbJW_l4e2RDl2kT1JHy-73" vertex="1" connectable="0">
          <mxGeometry x="-0.2589" relative="1" as="geometry">
            <mxPoint x="-18" y="14" as="offset" />
          </mxGeometry>
        </mxCell>
        <mxCell id="3cLOkpHJXaenaViT3jhE-5" style="rounded=0;orthogonalLoop=1;jettySize=auto;html=1;entryX=0.5;entryY=1;entryDx=0;entryDy=0;fillColor=#e1d5e7;strokeColor=#9673a6;exitX=1;exitY=0;exitDx=0;exitDy=0;" parent="1" source="7w4zLWjS5kB7MF0S2eMy-67" edge="1">
          <mxGeometry relative="1" as="geometry">
            <mxPoint x="340" y="440" as="targetPoint" />
          </mxGeometry>
        </mxCell>
        <mxCell id="3cLOkpHJXaenaViT3jhE-9" value="&lt;span style=&quot;color: light-dark(rgb(97, 53, 131), rgb(237, 237, 237));&quot;&gt;w&lt;sub&gt;o2&lt;/sub&gt;&lt;/span&gt;" style="edgeLabel;html=1;align=center;verticalAlign=middle;resizable=0;points=[];" parent="3cLOkpHJXaenaViT3jhE-5" vertex="1" connectable="0">
          <mxGeometry x="-0.2047" y="3" relative="1" as="geometry">
            <mxPoint x="17" y="-13" as="offset" />
          </mxGeometry>
        </mxCell>
        <mxCell id="OHbJW_l4e2RDl2kT1JHy-85" style="rounded=0;orthogonalLoop=1;jettySize=auto;html=1;fillColor=#f8cecc;strokeColor=#b85450;exitX=0.5;exitY=0;exitDx=0;exitDy=0;entryX=0.5;entryY=1;entryDx=0;entryDy=0;" parent="1" source="OHbJW_l4e2RDl2kT1JHy-48" target="OHbJW_l4e2RDl2kT1JHy-77" edge="1">
          <mxGeometry relative="1" as="geometry">
            <mxPoint x="249.9" y="370" as="sourcePoint" />
            <mxPoint x="409.9" y="328" as="targetPoint" />
          </mxGeometry>
        </mxCell>
        <mxCell id="OHbJW_l4e2RDl2kT1JHy-86" value="&lt;font color=&quot;#a51d2d&quot;&gt;w&lt;sub&gt;i2&lt;/sub&gt;&lt;/font&gt;" style="edgeLabel;html=1;align=center;verticalAlign=middle;resizable=0;points=[];fontFamily=Times New Roman;" parent="OHbJW_l4e2RDl2kT1JHy-85" vertex="1" connectable="0">
          <mxGeometry x="-0.2589" relative="1" as="geometry">
            <mxPoint x="18" y="14" as="offset" />
          </mxGeometry>
        </mxCell>
        <mxCell id="3cLOkpHJXaenaViT3jhE-22" value="23" style="rounded=0;whiteSpace=wrap;html=1;fillColor=#d5e8d4;strokeColor=#82b366;" parent="1" vertex="1">
          <mxGeometry x="599.93" y="720" width="40" height="40" as="geometry" />
        </mxCell>
        <mxCell id="3cLOkpHJXaenaViT3jhE-53" value="25" style="rounded=0;whiteSpace=wrap;html=1;fillColor=#d5e8d4;strokeColor=#82b366;" parent="1" vertex="1">
          <mxGeometry x="880.06" y="720" width="40" height="40" as="geometry" />
        </mxCell>
        <mxCell id="3cLOkpHJXaenaViT3jhE-74" style="edgeStyle=orthogonalEdgeStyle;rounded=0;orthogonalLoop=1;jettySize=auto;html=1;entryX=0.5;entryY=1;entryDx=0;entryDy=0;fillColor=#d5e8d4;strokeColor=#82b366;endArrow=classic;endFill=1;exitX=0.5;exitY=1;exitDx=0;exitDy=0;" parent="1" edge="1" source="3cLOkpHJXaenaViT3jhE-11">
          <mxGeometry relative="1" as="geometry">
            <Array as="points">
              <mxPoint x="60" y="790" />
              <mxPoint x="620" y="790" />
            </Array>
            <mxPoint x="140" y="250" as="sourcePoint" />
            <mxPoint x="619.8999999999996" y="760" as="targetPoint" />
          </mxGeometry>
        </mxCell>
        <mxCell id="3cLOkpHJXaenaViT3jhE-75" style="edgeStyle=orthogonalEdgeStyle;rounded=0;orthogonalLoop=1;jettySize=auto;html=1;entryX=0.5;entryY=1;entryDx=0;entryDy=0;fillColor=#d5e8d4;strokeColor=#82b366;endArrow=classic;endFill=1;exitX=0.5;exitY=1;exitDx=0;exitDy=0;" parent="1" edge="1" source="OHbJW_l4e2RDl2kT1JHy-32">
          <mxGeometry relative="1" as="geometry">
            <Array as="points">
              <mxPoint x="100" y="800" />
              <mxPoint x="900" y="800" />
            </Array>
            <mxPoint x="180" y="250" as="sourcePoint" />
            <mxPoint x="899.8999999999996" y="760" as="targetPoint" />
          </mxGeometry>
        </mxCell>
        <mxCell id="3cLOkpHJXaenaViT3jhE-78" value="" style="curved=1;endArrow=classic;html=1;rounded=0;exitX=0.56;exitY=1.014;exitDx=0;exitDy=0;exitPerimeter=0;entryX=0.5;entryY=1;entryDx=0;entryDy=0;fillColor=#fff2cc;strokeColor=#d6b656;" parent="1" edge="1">
          <mxGeometry width="50" height="50" relative="1" as="geometry">
            <mxPoint x="400" y="601.0000000000005" as="sourcePoint" />
            <mxPoint x="555" y="600.0000000000005" as="targetPoint" />
            <Array as="points">
              <mxPoint x="435" y="630.0000000000005" />
              <mxPoint x="515" y="630.0000000000005" />
            </Array>
          </mxGeometry>
        </mxCell>
        <mxCell id="3cLOkpHJXaenaViT3jhE-87" value="&lt;span style=&quot;color: light-dark(rgb(229, 165, 10), rgb(237, 237, 237));&quot;&gt;w&lt;sub&gt;h3&lt;/sub&gt;&lt;/span&gt;" style="edgeLabel;html=1;align=center;verticalAlign=middle;resizable=0;points=[];" parent="3cLOkpHJXaenaViT3jhE-78" vertex="1" connectable="0">
          <mxGeometry x="0.3137" y="5" relative="1" as="geometry">
            <mxPoint y="-15" as="offset" />
          </mxGeometry>
        </mxCell>
        <mxCell id="3cLOkpHJXaenaViT3jhE-79" value="" style="curved=1;endArrow=classic;html=1;rounded=0;exitX=0.5;exitY=1;exitDx=0;exitDy=0;entryX=0.5;entryY=1;entryDx=0;entryDy=0;fillColor=#fff2cc;strokeColor=#d6b656;" parent="1" edge="1">
          <mxGeometry width="50" height="50" relative="1" as="geometry">
            <mxPoint x="280.03" y="560.0000000000005" as="sourcePoint" />
            <mxPoint x="560.03" y="560.0000000000005" as="targetPoint" />
            <Array as="points">
              <mxPoint x="320.13" y="520" />
              <mxPoint x="519.93" y="520.0000000000005" />
            </Array>
          </mxGeometry>
        </mxCell>
        <mxCell id="3cLOkpHJXaenaViT3jhE-86" value="&lt;span style=&quot;color: light-dark(rgb(229, 165, 10), rgb(237, 237, 237));&quot;&gt;w&lt;sub&gt;h2&lt;/sub&gt;&lt;/span&gt;" style="edgeLabel;html=1;align=center;verticalAlign=middle;resizable=0;points=[];" parent="3cLOkpHJXaenaViT3jhE-79" vertex="1" connectable="0">
          <mxGeometry x="0.0929" relative="1" as="geometry">
            <mxPoint x="-4" y="10" as="offset" />
          </mxGeometry>
        </mxCell>
        <mxCell id="3cLOkpHJXaenaViT3jhE-83" value="" style="curved=1;endArrow=classic;html=1;rounded=0;exitX=0.5;exitY=1;exitDx=0;exitDy=0;entryX=0.5;entryY=1;entryDx=0;entryDy=0;fillColor=#fff2cc;strokeColor=#d6b656;" parent="1" edge="1">
          <mxGeometry width="50" height="50" relative="1" as="geometry">
            <mxPoint x="400" y="600.0000000000005" as="sourcePoint" />
            <mxPoint x="680" y="600.0000000000005" as="targetPoint" />
            <Array as="points">
              <mxPoint x="440.13" y="640.0000000000005" />
              <mxPoint x="639.9" y="640.0000000000005" />
            </Array>
          </mxGeometry>
        </mxCell>
        <mxCell id="3cLOkpHJXaenaViT3jhE-89" value="&lt;span style=&quot;color: light-dark(rgb(229, 165, 10), rgb(237, 237, 237));&quot;&gt;w&lt;sub&gt;h4&lt;/sub&gt;&lt;/span&gt;" style="edgeLabel;html=1;align=center;verticalAlign=middle;resizable=0;points=[];" parent="3cLOkpHJXaenaViT3jhE-83" vertex="1" connectable="0">
          <mxGeometry x="-0.0928" y="1" relative="1" as="geometry">
            <mxPoint x="-6" y="11" as="offset" />
          </mxGeometry>
        </mxCell>
        <mxCell id="3cLOkpHJXaenaViT3jhE-84" value="" style="curved=1;endArrow=classic;html=1;rounded=0;exitX=0.5;exitY=1;exitDx=0;exitDy=0;entryX=0.5;entryY=0;entryDx=0;entryDy=0;fillColor=#fff2cc;strokeColor=#d6b656;" parent="1" edge="1">
          <mxGeometry width="50" height="50" relative="1" as="geometry">
            <mxPoint x="280" y="560.0000000000005" as="sourcePoint" />
            <mxPoint x="680.0300000000001" y="560" as="targetPoint" />
            <Array as="points">
              <mxPoint x="320.13" y="520" />
              <mxPoint x="480.13" y="500" />
              <mxPoint x="640.13" y="520" />
            </Array>
          </mxGeometry>
        </mxCell>
        <mxCell id="3cLOkpHJXaenaViT3jhE-85" value="&lt;span style=&quot;color: light-dark(rgb(229, 165, 10), rgb(237, 237, 237));&quot;&gt;w&lt;sub&gt;h1&lt;/sub&gt;&lt;/span&gt;" style="edgeLabel;html=1;align=center;verticalAlign=middle;resizable=0;points=[];" parent="3cLOkpHJXaenaViT3jhE-84" vertex="1" connectable="0">
          <mxGeometry x="-0.0571" y="1" relative="1" as="geometry">
            <mxPoint y="-9" as="offset" />
          </mxGeometry>
        </mxCell>
        <mxCell id="3cLOkpHJXaenaViT3jhE-98" value="" style="endArrow=classic;html=1;rounded=0;fillColor=#f5f5f5;strokeColor=#666666;" parent="1" edge="1">
          <mxGeometry width="50" height="50" relative="1" as="geometry">
            <mxPoint x="339.97" y="400" as="sourcePoint" />
            <mxPoint x="340" y="370" as="targetPoint" />
          </mxGeometry>
        </mxCell>
        <mxCell id="3cLOkpHJXaenaViT3jhE-101" value="y&lt;sub&gt;1&lt;/sub&gt;" style="text;html=1;align=center;verticalAlign=middle;whiteSpace=wrap;rounded=0;fontColor=light-dark(#9a9996, #ededed);" parent="1" vertex="1">
          <mxGeometry x="329.97" y="340" width="20" height="30" as="geometry" />
        </mxCell>
        <mxCell id="3cLOkpHJXaenaViT3jhE-104" value="x&lt;sub&gt;1&lt;/sub&gt;" style="text;html=1;align=center;verticalAlign=middle;whiteSpace=wrap;rounded=0;" parent="1" vertex="1">
          <mxGeometry x="309.96" y="820" width="60" height="30" as="geometry" />
        </mxCell>
        <mxCell id="3cLOkpHJXaenaViT3jhE-105" value="x&lt;sub&gt;2&lt;/sub&gt;" style="text;html=1;align=center;verticalAlign=middle;whiteSpace=wrap;rounded=0;" parent="1" vertex="1">
          <mxGeometry x="589.86" y="820" width="60" height="30" as="geometry" />
        </mxCell>
        <mxCell id="3cLOkpHJXaenaViT3jhE-106" value="x&lt;sub&gt;3&lt;/sub&gt;" style="text;html=1;align=center;verticalAlign=middle;whiteSpace=wrap;rounded=0;" parent="1" vertex="1">
          <mxGeometry x="869.83" y="820" width="60" height="30" as="geometry" />
        </mxCell>
        <mxCell id="7w4zLWjS5kB7MF0S2eMy-11" value="22" style="rounded=0;whiteSpace=wrap;html=1;fillColor=#d5e8d4;strokeColor=#82b366;" vertex="1" parent="1">
          <mxGeometry x="1159.9" y="720" width="40" height="40" as="geometry" />
        </mxCell>
        <mxCell id="OHbJW_l4e2RDl2kT1JHy-77" value="" style="ellipse;whiteSpace=wrap;html=1;aspect=fixed;strokeWidth=2;" parent="1" vertex="1">
          <mxGeometry x="380" y="560" width="40" height="40" as="geometry" />
        </mxCell>
        <mxCell id="OHbJW_l4e2RDl2kT1JHy-80" value="" style="endArrow=none;html=1;rounded=0;entryX=0.5;entryY=0;entryDx=0;entryDy=0;exitX=0.5;exitY=1;exitDx=0;exitDy=0;" parent="1" source="OHbJW_l4e2RDl2kT1JHy-77" target="OHbJW_l4e2RDl2kT1JHy-77" edge="1">
          <mxGeometry width="50" height="50" relative="1" as="geometry">
            <mxPoint x="230" y="1030" as="sourcePoint" />
            <mxPoint x="280" y="980" as="targetPoint" />
          </mxGeometry>
        </mxCell>
        <mxCell id="OHbJW_l4e2RDl2kT1JHy-1" value="" style="ellipse;whiteSpace=wrap;html=1;aspect=fixed;strokeWidth=2;" parent="1" vertex="1">
          <mxGeometry x="260" y="560" width="40" height="40" as="geometry" />
        </mxCell>
        <mxCell id="OHbJW_l4e2RDl2kT1JHy-5" value="" style="endArrow=none;html=1;rounded=0;entryX=0.5;entryY=0;entryDx=0;entryDy=0;exitX=0.5;exitY=1;exitDx=0;exitDy=0;" parent="1" source="OHbJW_l4e2RDl2kT1JHy-1" target="OHbJW_l4e2RDl2kT1JHy-1" edge="1">
          <mxGeometry width="50" height="50" relative="1" as="geometry">
            <mxPoint x="109.99999999999997" y="1030" as="sourcePoint" />
            <mxPoint x="160.00000000000003" y="980" as="targetPoint" />
          </mxGeometry>
        </mxCell>
        <mxCell id="OHbJW_l4e2RDl2kT1JHy-7" value="&lt;div align=&quot;center&quot;&gt;&lt;font style=&quot;font-size: 16px;&quot;&gt;Σ&lt;/font&gt;&lt;/div&gt;" style="text;html=1;align=center;verticalAlign=middle;whiteSpace=wrap;rounded=0;" parent="1" vertex="1">
          <mxGeometry x="260" y="560" width="20" height="40" as="geometry" />
        </mxCell>
        <mxCell id="7w4zLWjS5kB7MF0S2eMy-42" value="&lt;font style=&quot;font-size: 16px;&quot;&gt;f&lt;/font&gt;" style="text;html=1;align=center;verticalAlign=middle;whiteSpace=wrap;rounded=0;" vertex="1" parent="1">
          <mxGeometry x="280" y="560" width="20" height="40" as="geometry" />
        </mxCell>
        <mxCell id="7w4zLWjS5kB7MF0S2eMy-67" value="&lt;div align=&quot;center&quot;&gt;&lt;font style=&quot;font-size: 16px;&quot;&gt;Σ&lt;/font&gt;&lt;/div&gt;" style="text;html=1;align=center;verticalAlign=middle;whiteSpace=wrap;rounded=0;" vertex="1" parent="1">
          <mxGeometry x="380" y="560" width="20" height="40" as="geometry" />
        </mxCell>
        <mxCell id="7w4zLWjS5kB7MF0S2eMy-68" value="&lt;font style=&quot;font-size: 16px;&quot;&gt;f&lt;/font&gt;" style="text;html=1;align=center;verticalAlign=middle;whiteSpace=wrap;rounded=0;" vertex="1" parent="1">
          <mxGeometry x="400" y="560" width="20" height="40" as="geometry" />
        </mxCell>
        <mxCell id="7w4zLWjS5kB7MF0S2eMy-69" value="" style="ellipse;whiteSpace=wrap;html=1;aspect=fixed;strokeWidth=2;" vertex="1" parent="1">
          <mxGeometry x="320" y="400" width="40" height="40" as="geometry" />
        </mxCell>
        <mxCell id="7w4zLWjS5kB7MF0S2eMy-70" value="" style="endArrow=none;html=1;rounded=0;entryX=0.5;entryY=0;entryDx=0;entryDy=0;exitX=0.5;exitY=1;exitDx=0;exitDy=0;" edge="1" parent="1" source="7w4zLWjS5kB7MF0S2eMy-69" target="7w4zLWjS5kB7MF0S2eMy-69">
          <mxGeometry width="50" height="50" relative="1" as="geometry">
            <mxPoint x="169.99999999999997" y="870" as="sourcePoint" />
            <mxPoint x="220.00000000000003" y="820" as="targetPoint" />
          </mxGeometry>
        </mxCell>
        <mxCell id="7w4zLWjS5kB7MF0S2eMy-71" value="&lt;div align=&quot;center&quot;&gt;&lt;font style=&quot;font-size: 16px;&quot;&gt;Σ&lt;/font&gt;&lt;/div&gt;" style="text;html=1;align=center;verticalAlign=middle;whiteSpace=wrap;rounded=0;" vertex="1" parent="1">
          <mxGeometry x="320" y="400" width="20" height="40" as="geometry" />
        </mxCell>
        <mxCell id="7w4zLWjS5kB7MF0S2eMy-72" value="&lt;font style=&quot;font-size: 16px;&quot;&gt;f&lt;/font&gt;" style="text;html=1;align=center;verticalAlign=middle;whiteSpace=wrap;rounded=0;" vertex="1" parent="1">
          <mxGeometry x="340" y="400" width="20" height="40" as="geometry" />
        </mxCell>
        <mxCell id="7w4zLWjS5kB7MF0S2eMy-145" value="" style="curved=1;endArrow=classic;html=1;rounded=0;exitX=0.56;exitY=1.014;exitDx=0;exitDy=0;exitPerimeter=0;entryX=0.5;entryY=1;entryDx=0;entryDy=0;fillColor=#fff2cc;strokeColor=#d6b656;" edge="1" parent="1">
          <mxGeometry width="50" height="50" relative="1" as="geometry">
            <mxPoint x="679.87" y="601.0000000000005" as="sourcePoint" />
            <mxPoint x="834.87" y="600.0000000000005" as="targetPoint" />
            <Array as="points">
              <mxPoint x="714.87" y="630.0000000000005" />
              <mxPoint x="794.87" y="630.0000000000005" />
            </Array>
          </mxGeometry>
        </mxCell>
        <mxCell id="7w4zLWjS5kB7MF0S2eMy-146" value="&lt;span style=&quot;color: light-dark(rgb(229, 165, 10), rgb(237, 237, 237));&quot;&gt;w&lt;sub&gt;h3&lt;/sub&gt;&lt;/span&gt;" style="edgeLabel;html=1;align=center;verticalAlign=middle;resizable=0;points=[];" vertex="1" connectable="0" parent="7w4zLWjS5kB7MF0S2eMy-145">
          <mxGeometry x="0.3137" y="5" relative="1" as="geometry">
            <mxPoint y="-15" as="offset" />
          </mxGeometry>
        </mxCell>
        <mxCell id="7w4zLWjS5kB7MF0S2eMy-147" value="" style="curved=1;endArrow=classic;html=1;rounded=0;exitX=0.5;exitY=1;exitDx=0;exitDy=0;entryX=0.5;entryY=1;entryDx=0;entryDy=0;fillColor=#fff2cc;strokeColor=#d6b656;" edge="1" parent="1">
          <mxGeometry width="50" height="50" relative="1" as="geometry">
            <mxPoint x="559.9" y="560.0000000000005" as="sourcePoint" />
            <mxPoint x="839.9" y="560.0000000000005" as="targetPoint" />
            <Array as="points">
              <mxPoint x="600.0000000000001" y="520" />
              <mxPoint x="799.8000000000001" y="520.0000000000005" />
            </Array>
          </mxGeometry>
        </mxCell>
        <mxCell id="7w4zLWjS5kB7MF0S2eMy-148" value="&lt;span style=&quot;color: light-dark(rgb(229, 165, 10), rgb(237, 237, 237));&quot;&gt;w&lt;sub&gt;h2&lt;/sub&gt;&lt;/span&gt;" style="edgeLabel;html=1;align=center;verticalAlign=middle;resizable=0;points=[];" vertex="1" connectable="0" parent="7w4zLWjS5kB7MF0S2eMy-147">
          <mxGeometry x="0.0929" relative="1" as="geometry">
            <mxPoint x="-4" y="10" as="offset" />
          </mxGeometry>
        </mxCell>
        <mxCell id="7w4zLWjS5kB7MF0S2eMy-149" value="" style="curved=1;endArrow=classic;html=1;rounded=0;exitX=0.5;exitY=1;exitDx=0;exitDy=0;entryX=0.5;entryY=1;entryDx=0;entryDy=0;fillColor=#fff2cc;strokeColor=#d6b656;" edge="1" parent="1">
          <mxGeometry width="50" height="50" relative="1" as="geometry">
            <mxPoint x="679.87" y="600.0000000000005" as="sourcePoint" />
            <mxPoint x="959.87" y="600.0000000000005" as="targetPoint" />
            <Array as="points">
              <mxPoint x="720.0000000000001" y="640.0000000000005" />
              <mxPoint x="919.7700000000001" y="640.0000000000005" />
            </Array>
          </mxGeometry>
        </mxCell>
        <mxCell id="7w4zLWjS5kB7MF0S2eMy-150" value="&lt;span style=&quot;color: light-dark(rgb(229, 165, 10), rgb(237, 237, 237));&quot;&gt;w&lt;sub&gt;h4&lt;/sub&gt;&lt;/span&gt;" style="edgeLabel;html=1;align=center;verticalAlign=middle;resizable=0;points=[];" vertex="1" connectable="0" parent="7w4zLWjS5kB7MF0S2eMy-149">
          <mxGeometry x="-0.0928" y="1" relative="1" as="geometry">
            <mxPoint x="-6" y="11" as="offset" />
          </mxGeometry>
        </mxCell>
        <mxCell id="7w4zLWjS5kB7MF0S2eMy-151" value="" style="curved=1;endArrow=classic;html=1;rounded=0;exitX=0.5;exitY=1;exitDx=0;exitDy=0;entryX=0.5;entryY=0;entryDx=0;entryDy=0;fillColor=#fff2cc;strokeColor=#d6b656;" edge="1" parent="1">
          <mxGeometry width="50" height="50" relative="1" as="geometry">
            <mxPoint x="559.87" y="560.0000000000005" as="sourcePoint" />
            <mxPoint x="959.9000000000002" y="560" as="targetPoint" />
            <Array as="points">
              <mxPoint x="600.0000000000001" y="520" />
              <mxPoint x="760.0000000000001" y="500" />
              <mxPoint x="920.0000000000001" y="520" />
            </Array>
          </mxGeometry>
        </mxCell>
        <mxCell id="7w4zLWjS5kB7MF0S2eMy-152" value="&lt;span style=&quot;color: light-dark(rgb(229, 165, 10), rgb(237, 237, 237));&quot;&gt;w&lt;sub&gt;h1&lt;/sub&gt;&lt;/span&gt;" style="edgeLabel;html=1;align=center;verticalAlign=middle;resizable=0;points=[];" vertex="1" connectable="0" parent="7w4zLWjS5kB7MF0S2eMy-151">
          <mxGeometry x="-0.0571" y="1" relative="1" as="geometry">
            <mxPoint y="-9" as="offset" />
          </mxGeometry>
        </mxCell>
        <mxCell id="7w4zLWjS5kB7MF0S2eMy-153" value="" style="endArrow=classic;html=1;rounded=0;fillColor=#f5f5f5;strokeColor=#666666;" edge="1" parent="1">
          <mxGeometry width="50" height="50" relative="1" as="geometry">
            <mxPoint x="619.9300000000001" y="400" as="sourcePoint" />
            <mxPoint x="619.96" y="370" as="targetPoint" />
          </mxGeometry>
        </mxCell>
        <mxCell id="7w4zLWjS5kB7MF0S2eMy-154" value="y&lt;sub&gt;2&lt;/sub&gt;" style="text;html=1;align=center;verticalAlign=middle;whiteSpace=wrap;rounded=0;fontColor=light-dark(#9a9996, #ededed);" vertex="1" parent="1">
          <mxGeometry x="609.9300000000001" y="340" width="20" height="30" as="geometry" />
        </mxCell>
        <mxCell id="7w4zLWjS5kB7MF0S2eMy-163" value="" style="ellipse;whiteSpace=wrap;html=1;aspect=fixed;strokeWidth=2;" vertex="1" parent="1">
          <mxGeometry x="659.87" y="560" width="40" height="40" as="geometry" />
        </mxCell>
        <mxCell id="7w4zLWjS5kB7MF0S2eMy-164" value="" style="endArrow=none;html=1;rounded=0;entryX=0.5;entryY=0;entryDx=0;entryDy=0;exitX=0.5;exitY=1;exitDx=0;exitDy=0;" edge="1" parent="1" source="7w4zLWjS5kB7MF0S2eMy-163" target="7w4zLWjS5kB7MF0S2eMy-163">
          <mxGeometry width="50" height="50" relative="1" as="geometry">
            <mxPoint x="509.87" y="1030" as="sourcePoint" />
            <mxPoint x="559.87" y="980" as="targetPoint" />
          </mxGeometry>
        </mxCell>
        <mxCell id="7w4zLWjS5kB7MF0S2eMy-165" value="" style="ellipse;whiteSpace=wrap;html=1;aspect=fixed;strokeWidth=2;" vertex="1" parent="1">
          <mxGeometry x="539.87" y="560" width="40" height="40" as="geometry" />
        </mxCell>
        <mxCell id="7w4zLWjS5kB7MF0S2eMy-166" value="" style="endArrow=none;html=1;rounded=0;entryX=0.5;entryY=0;entryDx=0;entryDy=0;exitX=0.5;exitY=1;exitDx=0;exitDy=0;" edge="1" parent="1" source="7w4zLWjS5kB7MF0S2eMy-165" target="7w4zLWjS5kB7MF0S2eMy-165">
          <mxGeometry width="50" height="50" relative="1" as="geometry">
            <mxPoint x="389.86999999999995" y="1030" as="sourcePoint" />
            <mxPoint x="439.87000000000006" y="980" as="targetPoint" />
          </mxGeometry>
        </mxCell>
        <mxCell id="7w4zLWjS5kB7MF0S2eMy-167" value="&lt;div align=&quot;center&quot;&gt;&lt;font style=&quot;font-size: 16px;&quot;&gt;Σ&lt;/font&gt;&lt;/div&gt;" style="text;html=1;align=center;verticalAlign=middle;whiteSpace=wrap;rounded=0;" vertex="1" parent="1">
          <mxGeometry x="539.87" y="560" width="20" height="40" as="geometry" />
        </mxCell>
        <mxCell id="7w4zLWjS5kB7MF0S2eMy-168" value="&lt;font style=&quot;font-size: 16px;&quot;&gt;f&lt;/font&gt;" style="text;html=1;align=center;verticalAlign=middle;whiteSpace=wrap;rounded=0;" vertex="1" parent="1">
          <mxGeometry x="559.87" y="560" width="20" height="40" as="geometry" />
        </mxCell>
        <mxCell id="7w4zLWjS5kB7MF0S2eMy-169" value="&lt;div align=&quot;center&quot;&gt;&lt;font style=&quot;font-size: 16px;&quot;&gt;Σ&lt;/font&gt;&lt;/div&gt;" style="text;html=1;align=center;verticalAlign=middle;whiteSpace=wrap;rounded=0;" vertex="1" parent="1">
          <mxGeometry x="659.87" y="560" width="20" height="40" as="geometry" />
        </mxCell>
        <mxCell id="7w4zLWjS5kB7MF0S2eMy-170" value="&lt;font style=&quot;font-size: 16px;&quot;&gt;f&lt;/font&gt;" style="text;html=1;align=center;verticalAlign=middle;whiteSpace=wrap;rounded=0;" vertex="1" parent="1">
          <mxGeometry x="679.87" y="560" width="20" height="40" as="geometry" />
        </mxCell>
        <mxCell id="7w4zLWjS5kB7MF0S2eMy-171" value="" style="ellipse;whiteSpace=wrap;html=1;aspect=fixed;strokeWidth=2;" vertex="1" parent="1">
          <mxGeometry x="599.87" y="400" width="40" height="40" as="geometry" />
        </mxCell>
        <mxCell id="7w4zLWjS5kB7MF0S2eMy-172" value="" style="endArrow=none;html=1;rounded=0;entryX=0.5;entryY=0;entryDx=0;entryDy=0;exitX=0.5;exitY=1;exitDx=0;exitDy=0;" edge="1" parent="1" source="7w4zLWjS5kB7MF0S2eMy-171" target="7w4zLWjS5kB7MF0S2eMy-171">
          <mxGeometry width="50" height="50" relative="1" as="geometry">
            <mxPoint x="449.86999999999995" y="870" as="sourcePoint" />
            <mxPoint x="499.87000000000006" y="820" as="targetPoint" />
          </mxGeometry>
        </mxCell>
        <mxCell id="7w4zLWjS5kB7MF0S2eMy-173" value="&lt;div align=&quot;center&quot;&gt;&lt;font style=&quot;font-size: 16px;&quot;&gt;Σ&lt;/font&gt;&lt;/div&gt;" style="text;html=1;align=center;verticalAlign=middle;whiteSpace=wrap;rounded=0;" vertex="1" parent="1">
          <mxGeometry x="599.87" y="400" width="20" height="40" as="geometry" />
        </mxCell>
        <mxCell id="7w4zLWjS5kB7MF0S2eMy-174" value="&lt;font style=&quot;font-size: 16px;&quot;&gt;f&lt;/font&gt;" style="text;html=1;align=center;verticalAlign=middle;whiteSpace=wrap;rounded=0;" vertex="1" parent="1">
          <mxGeometry x="619.87" y="400" width="20" height="40" as="geometry" />
        </mxCell>
        <mxCell id="7w4zLWjS5kB7MF0S2eMy-200" value="" style="curved=1;endArrow=classic;html=1;rounded=0;exitX=0.56;exitY=1.014;exitDx=0;exitDy=0;exitPerimeter=0;entryX=0.5;entryY=1;entryDx=0;entryDy=0;fillColor=#fff2cc;strokeColor=#d6b656;" edge="1" parent="1">
          <mxGeometry width="50" height="50" relative="1" as="geometry">
            <mxPoint x="960" y="601.0000000000005" as="sourcePoint" />
            <mxPoint x="1115" y="600.0000000000005" as="targetPoint" />
            <Array as="points">
              <mxPoint x="995" y="630.0000000000005" />
              <mxPoint x="1075" y="630.0000000000005" />
            </Array>
          </mxGeometry>
        </mxCell>
        <mxCell id="7w4zLWjS5kB7MF0S2eMy-201" value="&lt;span style=&quot;color: light-dark(rgb(229, 165, 10), rgb(237, 237, 237));&quot;&gt;w&lt;sub&gt;h3&lt;/sub&gt;&lt;/span&gt;" style="edgeLabel;html=1;align=center;verticalAlign=middle;resizable=0;points=[];" vertex="1" connectable="0" parent="7w4zLWjS5kB7MF0S2eMy-200">
          <mxGeometry x="0.3137" y="5" relative="1" as="geometry">
            <mxPoint y="-15" as="offset" />
          </mxGeometry>
        </mxCell>
        <mxCell id="7w4zLWjS5kB7MF0S2eMy-202" value="" style="curved=1;endArrow=classic;html=1;rounded=0;exitX=0.5;exitY=1;exitDx=0;exitDy=0;entryX=0.5;entryY=1;entryDx=0;entryDy=0;fillColor=#fff2cc;strokeColor=#d6b656;" edge="1" parent="1">
          <mxGeometry width="50" height="50" relative="1" as="geometry">
            <mxPoint x="840.03" y="560.0000000000005" as="sourcePoint" />
            <mxPoint x="1120.03" y="560.0000000000005" as="targetPoint" />
            <Array as="points">
              <mxPoint x="880.13" y="520" />
              <mxPoint x="1079.9299999999998" y="520.0000000000005" />
            </Array>
          </mxGeometry>
        </mxCell>
        <mxCell id="7w4zLWjS5kB7MF0S2eMy-203" value="&lt;span style=&quot;color: light-dark(rgb(229, 165, 10), rgb(237, 237, 237));&quot;&gt;w&lt;sub&gt;h2&lt;/sub&gt;&lt;/span&gt;" style="edgeLabel;html=1;align=center;verticalAlign=middle;resizable=0;points=[];" vertex="1" connectable="0" parent="7w4zLWjS5kB7MF0S2eMy-202">
          <mxGeometry x="0.0929" relative="1" as="geometry">
            <mxPoint x="-4" y="10" as="offset" />
          </mxGeometry>
        </mxCell>
        <mxCell id="7w4zLWjS5kB7MF0S2eMy-204" value="" style="curved=1;endArrow=classic;html=1;rounded=0;exitX=0.5;exitY=1;exitDx=0;exitDy=0;entryX=0.5;entryY=1;entryDx=0;entryDy=0;fillColor=#fff2cc;strokeColor=#d6b656;" edge="1" parent="1">
          <mxGeometry width="50" height="50" relative="1" as="geometry">
            <mxPoint x="960" y="600.0000000000005" as="sourcePoint" />
            <mxPoint x="1240" y="600.0000000000005" as="targetPoint" />
            <Array as="points">
              <mxPoint x="1000.13" y="640.0000000000005" />
              <mxPoint x="1199.9" y="640.0000000000005" />
            </Array>
          </mxGeometry>
        </mxCell>
        <mxCell id="7w4zLWjS5kB7MF0S2eMy-205" value="&lt;span style=&quot;color: light-dark(rgb(229, 165, 10), rgb(237, 237, 237));&quot;&gt;w&lt;sub&gt;h4&lt;/sub&gt;&lt;/span&gt;" style="edgeLabel;html=1;align=center;verticalAlign=middle;resizable=0;points=[];" vertex="1" connectable="0" parent="7w4zLWjS5kB7MF0S2eMy-204">
          <mxGeometry x="-0.0928" y="1" relative="1" as="geometry">
            <mxPoint x="-6" y="11" as="offset" />
          </mxGeometry>
        </mxCell>
        <mxCell id="7w4zLWjS5kB7MF0S2eMy-206" value="" style="curved=1;endArrow=classic;html=1;rounded=0;exitX=0.5;exitY=1;exitDx=0;exitDy=0;entryX=0.5;entryY=0;entryDx=0;entryDy=0;fillColor=#fff2cc;strokeColor=#d6b656;" edge="1" parent="1">
          <mxGeometry width="50" height="50" relative="1" as="geometry">
            <mxPoint x="840" y="560.0000000000005" as="sourcePoint" />
            <mxPoint x="1240.0300000000002" y="560" as="targetPoint" />
            <Array as="points">
              <mxPoint x="880.13" y="520" />
              <mxPoint x="1040.13" y="500" />
              <mxPoint x="1200.13" y="520" />
            </Array>
          </mxGeometry>
        </mxCell>
        <mxCell id="7w4zLWjS5kB7MF0S2eMy-207" value="&lt;span style=&quot;color: light-dark(rgb(229, 165, 10), rgb(237, 237, 237));&quot;&gt;w&lt;sub&gt;h1&lt;/sub&gt;&lt;/span&gt;" style="edgeLabel;html=1;align=center;verticalAlign=middle;resizable=0;points=[];" vertex="1" connectable="0" parent="7w4zLWjS5kB7MF0S2eMy-206">
          <mxGeometry x="-0.0571" y="1" relative="1" as="geometry">
            <mxPoint y="-9" as="offset" />
          </mxGeometry>
        </mxCell>
        <mxCell id="7w4zLWjS5kB7MF0S2eMy-208" value="" style="endArrow=classic;html=1;rounded=0;fillColor=#f5f5f5;strokeColor=#666666;" edge="1" parent="1">
          <mxGeometry width="50" height="50" relative="1" as="geometry">
            <mxPoint x="900.0600000000001" y="400" as="sourcePoint" />
            <mxPoint x="900.09" y="370" as="targetPoint" />
          </mxGeometry>
        </mxCell>
        <mxCell id="7w4zLWjS5kB7MF0S2eMy-209" value="y&lt;sub&gt;3&lt;/sub&gt;" style="text;html=1;align=center;verticalAlign=middle;whiteSpace=wrap;rounded=0;fontColor=light-dark(#9a9996, #ededed);" vertex="1" parent="1">
          <mxGeometry x="890.0600000000001" y="340" width="20" height="30" as="geometry" />
        </mxCell>
        <mxCell id="7w4zLWjS5kB7MF0S2eMy-218" value="" style="ellipse;whiteSpace=wrap;html=1;aspect=fixed;strokeWidth=2;" vertex="1" parent="1">
          <mxGeometry x="940" y="560" width="40" height="40" as="geometry" />
        </mxCell>
        <mxCell id="7w4zLWjS5kB7MF0S2eMy-219" value="" style="endArrow=none;html=1;rounded=0;entryX=0.5;entryY=0;entryDx=0;entryDy=0;exitX=0.5;exitY=1;exitDx=0;exitDy=0;" edge="1" parent="1" source="7w4zLWjS5kB7MF0S2eMy-218" target="7w4zLWjS5kB7MF0S2eMy-218">
          <mxGeometry width="50" height="50" relative="1" as="geometry">
            <mxPoint x="790" y="1030" as="sourcePoint" />
            <mxPoint x="840" y="980" as="targetPoint" />
          </mxGeometry>
        </mxCell>
        <mxCell id="7w4zLWjS5kB7MF0S2eMy-220" value="" style="ellipse;whiteSpace=wrap;html=1;aspect=fixed;strokeWidth=2;" vertex="1" parent="1">
          <mxGeometry x="820" y="560" width="40" height="40" as="geometry" />
        </mxCell>
        <mxCell id="7w4zLWjS5kB7MF0S2eMy-221" value="" style="endArrow=none;html=1;rounded=0;entryX=0.5;entryY=0;entryDx=0;entryDy=0;exitX=0.5;exitY=1;exitDx=0;exitDy=0;" edge="1" parent="1" source="7w4zLWjS5kB7MF0S2eMy-220" target="7w4zLWjS5kB7MF0S2eMy-220">
          <mxGeometry width="50" height="50" relative="1" as="geometry">
            <mxPoint x="670" y="1030" as="sourcePoint" />
            <mxPoint x="720" y="980" as="targetPoint" />
          </mxGeometry>
        </mxCell>
        <mxCell id="7w4zLWjS5kB7MF0S2eMy-222" value="&lt;div align=&quot;center&quot;&gt;&lt;font style=&quot;font-size: 16px;&quot;&gt;Σ&lt;/font&gt;&lt;/div&gt;" style="text;html=1;align=center;verticalAlign=middle;whiteSpace=wrap;rounded=0;" vertex="1" parent="1">
          <mxGeometry x="820" y="560" width="20" height="40" as="geometry" />
        </mxCell>
        <mxCell id="7w4zLWjS5kB7MF0S2eMy-223" value="&lt;font style=&quot;font-size: 16px;&quot;&gt;f&lt;/font&gt;" style="text;html=1;align=center;verticalAlign=middle;whiteSpace=wrap;rounded=0;" vertex="1" parent="1">
          <mxGeometry x="840" y="560" width="20" height="40" as="geometry" />
        </mxCell>
        <mxCell id="7w4zLWjS5kB7MF0S2eMy-224" value="&lt;div align=&quot;center&quot;&gt;&lt;font style=&quot;font-size: 16px;&quot;&gt;Σ&lt;/font&gt;&lt;/div&gt;" style="text;html=1;align=center;verticalAlign=middle;whiteSpace=wrap;rounded=0;" vertex="1" parent="1">
          <mxGeometry x="940" y="560" width="20" height="40" as="geometry" />
        </mxCell>
        <mxCell id="7w4zLWjS5kB7MF0S2eMy-225" value="&lt;font style=&quot;font-size: 16px;&quot;&gt;f&lt;/font&gt;" style="text;html=1;align=center;verticalAlign=middle;whiteSpace=wrap;rounded=0;" vertex="1" parent="1">
          <mxGeometry x="960" y="560" width="20" height="40" as="geometry" />
        </mxCell>
        <mxCell id="7w4zLWjS5kB7MF0S2eMy-226" value="" style="ellipse;whiteSpace=wrap;html=1;aspect=fixed;strokeWidth=2;" vertex="1" parent="1">
          <mxGeometry x="880" y="400" width="40" height="40" as="geometry" />
        </mxCell>
        <mxCell id="7w4zLWjS5kB7MF0S2eMy-227" value="" style="endArrow=none;html=1;rounded=0;entryX=0.5;entryY=0;entryDx=0;entryDy=0;exitX=0.5;exitY=1;exitDx=0;exitDy=0;" edge="1" parent="1" source="7w4zLWjS5kB7MF0S2eMy-226" target="7w4zLWjS5kB7MF0S2eMy-226">
          <mxGeometry width="50" height="50" relative="1" as="geometry">
            <mxPoint x="730" y="870" as="sourcePoint" />
            <mxPoint x="780" y="820" as="targetPoint" />
          </mxGeometry>
        </mxCell>
        <mxCell id="7w4zLWjS5kB7MF0S2eMy-228" value="&lt;div align=&quot;center&quot;&gt;&lt;font style=&quot;font-size: 16px;&quot;&gt;Σ&lt;/font&gt;&lt;/div&gt;" style="text;html=1;align=center;verticalAlign=middle;whiteSpace=wrap;rounded=0;" vertex="1" parent="1">
          <mxGeometry x="880" y="400" width="20" height="40" as="geometry" />
        </mxCell>
        <mxCell id="7w4zLWjS5kB7MF0S2eMy-229" value="&lt;font style=&quot;font-size: 16px;&quot;&gt;f&lt;/font&gt;" style="text;html=1;align=center;verticalAlign=middle;whiteSpace=wrap;rounded=0;" vertex="1" parent="1">
          <mxGeometry x="900" y="400" width="20" height="40" as="geometry" />
        </mxCell>
        <mxCell id="7w4zLWjS5kB7MF0S2eMy-255" value="" style="curved=1;endArrow=classic;html=1;rounded=0;exitX=0.56;exitY=1.014;exitDx=0;exitDy=0;exitPerimeter=0;entryX=0.5;entryY=1;entryDx=0;entryDy=0;fillColor=#fff2cc;strokeColor=#d6b656;" edge="1" parent="1">
          <mxGeometry width="50" height="50" relative="1" as="geometry">
            <mxPoint x="1240" y="601.0000000000005" as="sourcePoint" />
            <mxPoint x="1395" y="600.0000000000005" as="targetPoint" />
            <Array as="points">
              <mxPoint x="1275" y="630.0000000000005" />
              <mxPoint x="1355" y="630.0000000000005" />
            </Array>
          </mxGeometry>
        </mxCell>
        <mxCell id="7w4zLWjS5kB7MF0S2eMy-256" value="&lt;span style=&quot;color: light-dark(rgb(229, 165, 10), rgb(237, 237, 237));&quot;&gt;w&lt;sub&gt;h3&lt;/sub&gt;&lt;/span&gt;" style="edgeLabel;html=1;align=center;verticalAlign=middle;resizable=0;points=[];" vertex="1" connectable="0" parent="7w4zLWjS5kB7MF0S2eMy-255">
          <mxGeometry x="0.3137" y="5" relative="1" as="geometry">
            <mxPoint y="-15" as="offset" />
          </mxGeometry>
        </mxCell>
        <mxCell id="7w4zLWjS5kB7MF0S2eMy-257" value="" style="curved=1;endArrow=classic;html=1;rounded=0;exitX=0.5;exitY=1;exitDx=0;exitDy=0;entryX=0.5;entryY=1;entryDx=0;entryDy=0;fillColor=#fff2cc;strokeColor=#d6b656;" edge="1" parent="1">
          <mxGeometry width="50" height="50" relative="1" as="geometry">
            <mxPoint x="1120.03" y="560.0000000000005" as="sourcePoint" />
            <mxPoint x="1400.03" y="560.0000000000005" as="targetPoint" />
            <Array as="points">
              <mxPoint x="1160.13" y="520" />
              <mxPoint x="1359.9299999999998" y="520.0000000000005" />
            </Array>
          </mxGeometry>
        </mxCell>
        <mxCell id="7w4zLWjS5kB7MF0S2eMy-258" value="&lt;span style=&quot;color: light-dark(rgb(229, 165, 10), rgb(237, 237, 237));&quot;&gt;w&lt;sub&gt;h2&lt;/sub&gt;&lt;/span&gt;" style="edgeLabel;html=1;align=center;verticalAlign=middle;resizable=0;points=[];" vertex="1" connectable="0" parent="7w4zLWjS5kB7MF0S2eMy-257">
          <mxGeometry x="0.0929" relative="1" as="geometry">
            <mxPoint x="-4" y="10" as="offset" />
          </mxGeometry>
        </mxCell>
        <mxCell id="7w4zLWjS5kB7MF0S2eMy-259" value="" style="curved=1;endArrow=classic;html=1;rounded=0;exitX=0.5;exitY=1;exitDx=0;exitDy=0;entryX=0.5;entryY=1;entryDx=0;entryDy=0;fillColor=#fff2cc;strokeColor=#d6b656;" edge="1" parent="1">
          <mxGeometry width="50" height="50" relative="1" as="geometry">
            <mxPoint x="1240" y="600.0000000000005" as="sourcePoint" />
            <mxPoint x="1520" y="600.0000000000005" as="targetPoint" />
            <Array as="points">
              <mxPoint x="1280.13" y="640.0000000000005" />
              <mxPoint x="1479.9" y="640.0000000000005" />
            </Array>
          </mxGeometry>
        </mxCell>
        <mxCell id="7w4zLWjS5kB7MF0S2eMy-260" value="&lt;span style=&quot;color: light-dark(rgb(229, 165, 10), rgb(237, 237, 237));&quot;&gt;w&lt;sub&gt;h4&lt;/sub&gt;&lt;/span&gt;" style="edgeLabel;html=1;align=center;verticalAlign=middle;resizable=0;points=[];" vertex="1" connectable="0" parent="7w4zLWjS5kB7MF0S2eMy-259">
          <mxGeometry x="-0.0928" y="1" relative="1" as="geometry">
            <mxPoint x="-6" y="11" as="offset" />
          </mxGeometry>
        </mxCell>
        <mxCell id="7w4zLWjS5kB7MF0S2eMy-261" value="" style="curved=1;endArrow=classic;html=1;rounded=0;exitX=0.5;exitY=1;exitDx=0;exitDy=0;entryX=0.5;entryY=0;entryDx=0;entryDy=0;fillColor=#fff2cc;strokeColor=#d6b656;" edge="1" parent="1">
          <mxGeometry width="50" height="50" relative="1" as="geometry">
            <mxPoint x="1120" y="560.0000000000005" as="sourcePoint" />
            <mxPoint x="1520.0300000000002" y="560" as="targetPoint" />
            <Array as="points">
              <mxPoint x="1160.13" y="520" />
              <mxPoint x="1320.13" y="500" />
              <mxPoint x="1480.13" y="520" />
            </Array>
          </mxGeometry>
        </mxCell>
        <mxCell id="7w4zLWjS5kB7MF0S2eMy-262" value="&lt;span style=&quot;color: light-dark(rgb(229, 165, 10), rgb(237, 237, 237));&quot;&gt;w&lt;sub&gt;h1&lt;/sub&gt;&lt;/span&gt;" style="edgeLabel;html=1;align=center;verticalAlign=middle;resizable=0;points=[];" vertex="1" connectable="0" parent="7w4zLWjS5kB7MF0S2eMy-261">
          <mxGeometry x="-0.0571" y="1" relative="1" as="geometry">
            <mxPoint y="-9" as="offset" />
          </mxGeometry>
        </mxCell>
        <mxCell id="7w4zLWjS5kB7MF0S2eMy-263" value="" style="endArrow=classic;html=1;rounded=0;fillColor=#f5f5f5;strokeColor=#666666;" edge="1" parent="1">
          <mxGeometry width="50" height="50" relative="1" as="geometry">
            <mxPoint x="1180.06" y="400" as="sourcePoint" />
            <mxPoint x="1180.09" y="370" as="targetPoint" />
          </mxGeometry>
        </mxCell>
        <mxCell id="7w4zLWjS5kB7MF0S2eMy-264" value="y&lt;sub&gt;4&lt;/sub&gt;" style="text;html=1;align=center;verticalAlign=middle;whiteSpace=wrap;rounded=0;fontColor=light-dark(#9a9996, #ededed);" vertex="1" parent="1">
          <mxGeometry x="1170.06" y="340" width="20" height="30" as="geometry" />
        </mxCell>
        <mxCell id="7w4zLWjS5kB7MF0S2eMy-273" value="" style="ellipse;whiteSpace=wrap;html=1;aspect=fixed;strokeWidth=2;" vertex="1" parent="1">
          <mxGeometry x="1220" y="560" width="40" height="40" as="geometry" />
        </mxCell>
        <mxCell id="7w4zLWjS5kB7MF0S2eMy-274" value="" style="endArrow=none;html=1;rounded=0;entryX=0.5;entryY=0;entryDx=0;entryDy=0;exitX=0.5;exitY=1;exitDx=0;exitDy=0;" edge="1" parent="1" source="7w4zLWjS5kB7MF0S2eMy-273" target="7w4zLWjS5kB7MF0S2eMy-273">
          <mxGeometry width="50" height="50" relative="1" as="geometry">
            <mxPoint x="1070" y="1030" as="sourcePoint" />
            <mxPoint x="1120" y="980" as="targetPoint" />
          </mxGeometry>
        </mxCell>
        <mxCell id="7w4zLWjS5kB7MF0S2eMy-275" value="" style="ellipse;whiteSpace=wrap;html=1;aspect=fixed;strokeWidth=2;" vertex="1" parent="1">
          <mxGeometry x="1100" y="560" width="40" height="40" as="geometry" />
        </mxCell>
        <mxCell id="7w4zLWjS5kB7MF0S2eMy-276" value="" style="endArrow=none;html=1;rounded=0;entryX=0.5;entryY=0;entryDx=0;entryDy=0;exitX=0.5;exitY=1;exitDx=0;exitDy=0;" edge="1" parent="1" source="7w4zLWjS5kB7MF0S2eMy-275" target="7w4zLWjS5kB7MF0S2eMy-275">
          <mxGeometry width="50" height="50" relative="1" as="geometry">
            <mxPoint x="950" y="1030" as="sourcePoint" />
            <mxPoint x="1000" y="980" as="targetPoint" />
          </mxGeometry>
        </mxCell>
        <mxCell id="7w4zLWjS5kB7MF0S2eMy-277" value="&lt;div align=&quot;center&quot;&gt;&lt;font style=&quot;font-size: 16px;&quot;&gt;Σ&lt;/font&gt;&lt;/div&gt;" style="text;html=1;align=center;verticalAlign=middle;whiteSpace=wrap;rounded=0;" vertex="1" parent="1">
          <mxGeometry x="1100" y="560" width="20" height="40" as="geometry" />
        </mxCell>
        <mxCell id="7w4zLWjS5kB7MF0S2eMy-278" value="&lt;font style=&quot;font-size: 16px;&quot;&gt;f&lt;/font&gt;" style="text;html=1;align=center;verticalAlign=middle;whiteSpace=wrap;rounded=0;" vertex="1" parent="1">
          <mxGeometry x="1120" y="560" width="20" height="40" as="geometry" />
        </mxCell>
        <mxCell id="7w4zLWjS5kB7MF0S2eMy-279" value="&lt;div align=&quot;center&quot;&gt;&lt;font style=&quot;font-size: 16px;&quot;&gt;Σ&lt;/font&gt;&lt;/div&gt;" style="text;html=1;align=center;verticalAlign=middle;whiteSpace=wrap;rounded=0;" vertex="1" parent="1">
          <mxGeometry x="1220" y="560" width="20" height="40" as="geometry" />
        </mxCell>
        <mxCell id="7w4zLWjS5kB7MF0S2eMy-280" value="&lt;font style=&quot;font-size: 16px;&quot;&gt;f&lt;/font&gt;" style="text;html=1;align=center;verticalAlign=middle;whiteSpace=wrap;rounded=0;" vertex="1" parent="1">
          <mxGeometry x="1240" y="560" width="20" height="40" as="geometry" />
        </mxCell>
        <mxCell id="7w4zLWjS5kB7MF0S2eMy-281" value="" style="ellipse;whiteSpace=wrap;html=1;aspect=fixed;strokeWidth=2;" vertex="1" parent="1">
          <mxGeometry x="1160" y="400" width="40" height="40" as="geometry" />
        </mxCell>
        <mxCell id="7w4zLWjS5kB7MF0S2eMy-282" value="" style="endArrow=none;html=1;rounded=0;entryX=0.5;entryY=0;entryDx=0;entryDy=0;exitX=0.5;exitY=1;exitDx=0;exitDy=0;" edge="1" parent="1" source="7w4zLWjS5kB7MF0S2eMy-281" target="7w4zLWjS5kB7MF0S2eMy-281">
          <mxGeometry width="50" height="50" relative="1" as="geometry">
            <mxPoint x="1010" y="870" as="sourcePoint" />
            <mxPoint x="1060" y="820" as="targetPoint" />
          </mxGeometry>
        </mxCell>
        <mxCell id="7w4zLWjS5kB7MF0S2eMy-283" value="&lt;div align=&quot;center&quot;&gt;&lt;font style=&quot;font-size: 16px;&quot;&gt;Σ&lt;/font&gt;&lt;/div&gt;" style="text;html=1;align=center;verticalAlign=middle;whiteSpace=wrap;rounded=0;" vertex="1" parent="1">
          <mxGeometry x="1160" y="400" width="20" height="40" as="geometry" />
        </mxCell>
        <mxCell id="7w4zLWjS5kB7MF0S2eMy-284" value="&lt;font style=&quot;font-size: 16px;&quot;&gt;f&lt;/font&gt;" style="text;html=1;align=center;verticalAlign=middle;whiteSpace=wrap;rounded=0;" vertex="1" parent="1">
          <mxGeometry x="1180" y="400" width="20" height="40" as="geometry" />
        </mxCell>
        <mxCell id="7w4zLWjS5kB7MF0S2eMy-293" value="" style="rounded=0;whiteSpace=wrap;html=1;fillColor=#f8cecc;strokeColor=#b85450;" vertex="1" parent="1">
          <mxGeometry x="1434" y="390" width="616" height="60" as="geometry" />
        </mxCell>
        <mxCell id="7w4zLWjS5kB7MF0S2eMy-318" value="" style="endArrow=classic;html=1;rounded=0;fillColor=#f8cecc;strokeColor=#b85450;entryX=0.5;entryY=1;entryDx=0;entryDy=0;" edge="1" parent="1" target="7w4zLWjS5kB7MF0S2eMy-434">
          <mxGeometry width="50" height="50" relative="1" as="geometry">
            <mxPoint x="1460" y="400" as="sourcePoint" />
            <mxPoint x="1710" y="820" as="targetPoint" />
            <Array as="points">
              <mxPoint x="1460" y="360" />
              <mxPoint x="1600" y="360" />
              <mxPoint x="1600" y="820" />
              <mxPoint x="1740" y="820" />
            </Array>
          </mxGeometry>
        </mxCell>
        <mxCell id="7w4zLWjS5kB7MF0S2eMy-319" value="&lt;b&gt;&lt;span style=&quot;color: light-dark(rgb(165, 29, 45), rgb(237, 237, 237));&quot;&gt;y&lt;sub&gt;5&lt;/sub&gt;&lt;/span&gt;&lt;/b&gt;" style="text;html=1;align=center;verticalAlign=middle;whiteSpace=wrap;rounded=0;" vertex="1" parent="1">
          <mxGeometry x="1449.97" y="330" width="20" height="30" as="geometry" />
        </mxCell>
        <mxCell id="7w4zLWjS5kB7MF0S2eMy-328" value="" style="ellipse;whiteSpace=wrap;html=1;aspect=fixed;strokeWidth=2;" vertex="1" parent="1">
          <mxGeometry x="1500" y="560" width="40" height="40" as="geometry" />
        </mxCell>
        <mxCell id="7w4zLWjS5kB7MF0S2eMy-329" value="" style="endArrow=none;html=1;rounded=0;entryX=0.5;entryY=0;entryDx=0;entryDy=0;exitX=0.5;exitY=1;exitDx=0;exitDy=0;" edge="1" parent="1" source="7w4zLWjS5kB7MF0S2eMy-328" target="7w4zLWjS5kB7MF0S2eMy-328">
          <mxGeometry width="50" height="50" relative="1" as="geometry">
            <mxPoint x="1350" y="1030" as="sourcePoint" />
            <mxPoint x="1400" y="980" as="targetPoint" />
          </mxGeometry>
        </mxCell>
        <mxCell id="7w4zLWjS5kB7MF0S2eMy-330" value="" style="ellipse;whiteSpace=wrap;html=1;aspect=fixed;strokeWidth=2;" vertex="1" parent="1">
          <mxGeometry x="1380" y="560" width="40" height="40" as="geometry" />
        </mxCell>
        <mxCell id="7w4zLWjS5kB7MF0S2eMy-331" value="" style="endArrow=none;html=1;rounded=0;entryX=0.5;entryY=0;entryDx=0;entryDy=0;exitX=0.5;exitY=1;exitDx=0;exitDy=0;" edge="1" parent="1" source="7w4zLWjS5kB7MF0S2eMy-330" target="7w4zLWjS5kB7MF0S2eMy-330">
          <mxGeometry width="50" height="50" relative="1" as="geometry">
            <mxPoint x="1230" y="1030" as="sourcePoint" />
            <mxPoint x="1280" y="980" as="targetPoint" />
          </mxGeometry>
        </mxCell>
        <mxCell id="7w4zLWjS5kB7MF0S2eMy-332" value="&lt;div align=&quot;center&quot;&gt;&lt;font style=&quot;font-size: 16px;&quot;&gt;Σ&lt;/font&gt;&lt;/div&gt;" style="text;html=1;align=center;verticalAlign=middle;whiteSpace=wrap;rounded=0;" vertex="1" parent="1">
          <mxGeometry x="1380" y="560" width="20" height="40" as="geometry" />
        </mxCell>
        <mxCell id="7w4zLWjS5kB7MF0S2eMy-333" value="&lt;font style=&quot;font-size: 16px;&quot;&gt;f&lt;/font&gt;" style="text;html=1;align=center;verticalAlign=middle;whiteSpace=wrap;rounded=0;" vertex="1" parent="1">
          <mxGeometry x="1400" y="560" width="20" height="40" as="geometry" />
        </mxCell>
        <mxCell id="7w4zLWjS5kB7MF0S2eMy-334" value="&lt;div align=&quot;center&quot;&gt;&lt;font style=&quot;font-size: 16px;&quot;&gt;Σ&lt;/font&gt;&lt;/div&gt;" style="text;html=1;align=center;verticalAlign=middle;whiteSpace=wrap;rounded=0;" vertex="1" parent="1">
          <mxGeometry x="1500" y="560" width="20" height="40" as="geometry" />
        </mxCell>
        <mxCell id="7w4zLWjS5kB7MF0S2eMy-335" value="&lt;font style=&quot;font-size: 16px;&quot;&gt;f&lt;/font&gt;" style="text;html=1;align=center;verticalAlign=middle;whiteSpace=wrap;rounded=0;" vertex="1" parent="1">
          <mxGeometry x="1520" y="560" width="20" height="40" as="geometry" />
        </mxCell>
        <mxCell id="7w4zLWjS5kB7MF0S2eMy-336" value="" style="ellipse;whiteSpace=wrap;html=1;aspect=fixed;strokeWidth=2;" vertex="1" parent="1">
          <mxGeometry x="1440" y="400" width="40" height="40" as="geometry" />
        </mxCell>
        <mxCell id="7w4zLWjS5kB7MF0S2eMy-337" value="" style="endArrow=none;html=1;rounded=0;entryX=0.5;entryY=0;entryDx=0;entryDy=0;exitX=0.5;exitY=1;exitDx=0;exitDy=0;" edge="1" parent="1" source="7w4zLWjS5kB7MF0S2eMy-336" target="7w4zLWjS5kB7MF0S2eMy-336">
          <mxGeometry width="50" height="50" relative="1" as="geometry">
            <mxPoint x="1290" y="870" as="sourcePoint" />
            <mxPoint x="1340" y="820" as="targetPoint" />
          </mxGeometry>
        </mxCell>
        <mxCell id="7w4zLWjS5kB7MF0S2eMy-338" value="&lt;div align=&quot;center&quot;&gt;&lt;font style=&quot;font-size: 16px;&quot;&gt;Σ&lt;/font&gt;&lt;/div&gt;" style="text;html=1;align=center;verticalAlign=middle;whiteSpace=wrap;rounded=0;" vertex="1" parent="1">
          <mxGeometry x="1440" y="400" width="20" height="40" as="geometry" />
        </mxCell>
        <mxCell id="7w4zLWjS5kB7MF0S2eMy-339" value="&lt;font style=&quot;font-size: 16px;&quot;&gt;f&lt;/font&gt;" style="text;html=1;align=center;verticalAlign=middle;whiteSpace=wrap;rounded=0;" vertex="1" parent="1">
          <mxGeometry x="1460" y="400" width="20" height="40" as="geometry" />
        </mxCell>
        <mxCell id="7w4zLWjS5kB7MF0S2eMy-350" value="21" style="rounded=0;whiteSpace=wrap;html=1;fillColor=#d5e8d4;strokeColor=#82b366;" vertex="1" parent="1">
          <mxGeometry x="1440" y="720" width="40" height="40" as="geometry" />
        </mxCell>
        <mxCell id="7w4zLWjS5kB7MF0S2eMy-354" style="edgeStyle=orthogonalEdgeStyle;rounded=0;orthogonalLoop=1;jettySize=auto;html=1;entryX=0.5;entryY=1;entryDx=0;entryDy=0;fillColor=#d5e8d4;strokeColor=#82b366;endArrow=classic;endFill=1;exitX=0.5;exitY=1;exitDx=0;exitDy=0;" edge="1" parent="1" source="3cLOkpHJXaenaViT3jhE-10">
          <mxGeometry relative="1" as="geometry">
            <Array as="points">
              <mxPoint x="140" y="810" />
              <mxPoint x="1180" y="810" />
            </Array>
            <mxPoint x="140" y="250" as="sourcePoint" />
            <mxPoint x="1179.8999999999996" y="760" as="targetPoint" />
          </mxGeometry>
        </mxCell>
        <mxCell id="7w4zLWjS5kB7MF0S2eMy-355" style="edgeStyle=orthogonalEdgeStyle;rounded=0;orthogonalLoop=1;jettySize=auto;html=1;entryX=0.5;entryY=1;entryDx=0;entryDy=0;fillColor=#d5e8d4;strokeColor=#82b366;endArrow=classic;endFill=1;exitX=0.5;exitY=1;exitDx=0;exitDy=0;" edge="1" parent="1">
          <mxGeometry relative="1" as="geometry">
            <Array as="points">
              <mxPoint x="180" y="820" />
              <mxPoint x="1460" y="820" />
            </Array>
            <mxPoint x="179.87" y="250" as="sourcePoint" />
            <mxPoint x="1459.9700000000003" y="760" as="targetPoint" />
          </mxGeometry>
        </mxCell>
        <mxCell id="7w4zLWjS5kB7MF0S2eMy-356" value="x&lt;sub&gt;4&lt;/sub&gt;" style="text;html=1;align=center;verticalAlign=middle;whiteSpace=wrap;rounded=0;" vertex="1" parent="1">
          <mxGeometry x="1149.9" y="820" width="60" height="30" as="geometry" />
        </mxCell>
        <mxCell id="7w4zLWjS5kB7MF0S2eMy-357" value="x&lt;sub&gt;5&lt;/sub&gt;" style="text;html=1;align=center;verticalAlign=middle;whiteSpace=wrap;rounded=0;" vertex="1" parent="1">
          <mxGeometry x="1429.97" y="820" width="60" height="30" as="geometry" />
        </mxCell>
        <mxCell id="7w4zLWjS5kB7MF0S2eMy-358" value="" style="shape=curlyBracket;whiteSpace=wrap;html=1;rounded=1;labelPosition=left;verticalLabelPosition=middle;align=right;verticalAlign=middle;rotation=90;fillColor=#f5f5f5;fontColor=#333333;strokeColor=#666666;" vertex="1" parent="1">
          <mxGeometry x="79" width="20" height="180" as="geometry" />
        </mxCell>
        <mxCell id="7w4zLWjS5kB7MF0S2eMy-359" value="" style="shape=curlyBracket;whiteSpace=wrap;html=1;rounded=1;labelPosition=left;verticalLabelPosition=middle;align=right;verticalAlign=middle;rotation=90;fillColor=#f5f5f5;fontColor=#333333;strokeColor=#666666;" vertex="1" parent="1">
          <mxGeometry x="236" y="25" width="20" height="130" as="geometry" />
        </mxCell>
        <mxCell id="7w4zLWjS5kB7MF0S2eMy-360" value="&lt;span style=&quot;color: light-dark(rgb(154, 153, 150), rgb(237, 237, 237));&quot;&gt;Past&lt;/span&gt;" style="text;html=1;align=center;verticalAlign=middle;whiteSpace=wrap;rounded=0;" vertex="1" parent="1">
          <mxGeometry x="59" y="50" width="60" height="30" as="geometry" />
        </mxCell>
        <mxCell id="7w4zLWjS5kB7MF0S2eMy-361" value="&lt;span style=&quot;color: light-dark(rgb(154, 153, 150), rgb(237, 237, 237));&quot;&gt;Future&lt;/span&gt;" style="text;html=1;align=center;verticalAlign=middle;whiteSpace=wrap;rounded=0;" vertex="1" parent="1">
          <mxGeometry x="216" y="50" width="60" height="30" as="geometry" />
        </mxCell>
        <mxCell id="7w4zLWjS5kB7MF0S2eMy-364" value="" style="rounded=1;whiteSpace=wrap;html=1;fillColor=#f8cecc;strokeColor=#b85450;dashed=1;dashPattern=1 2;" vertex="1" parent="1">
          <mxGeometry x="250" y="130" width="20" height="120" as="geometry" />
        </mxCell>
        <mxCell id="7w4zLWjS5kB7MF0S2eMy-365" value="" style="rounded=1;whiteSpace=wrap;html=1;fillColor=#f8cecc;strokeColor=#b85450;dashed=1;dashPattern=1 2;" vertex="1" parent="1">
          <mxGeometry x="289.96" y="130" width="20" height="120" as="geometry" />
        </mxCell>
        <mxCell id="7w4zLWjS5kB7MF0S2eMy-366" style="edgeStyle=orthogonalEdgeStyle;rounded=0;orthogonalLoop=1;jettySize=auto;html=1;fillColor=#f8cecc;strokeColor=#b85450;dashed=1;dashPattern=1 2;endArrow=none;endFill=0;entryX=0;entryY=0;entryDx=0;entryDy=0;" edge="1" parent="1" target="7w4zLWjS5kB7MF0S2eMy-339">
          <mxGeometry relative="1" as="geometry">
            <mxPoint x="230.00000000000023" y="210" as="sourcePoint" />
            <mxPoint x="1470" y="360" as="targetPoint" />
            <Array as="points">
              <mxPoint x="230" y="280" />
              <mxPoint x="1460" y="280" />
            </Array>
          </mxGeometry>
        </mxCell>
        <mxCell id="7w4zLWjS5kB7MF0S2eMy-367" style="edgeStyle=orthogonalEdgeStyle;rounded=0;orthogonalLoop=1;jettySize=auto;html=1;entryX=0;entryY=0;entryDx=0;entryDy=0;fillColor=#f8cecc;strokeColor=#b85450;dashed=1;dashPattern=1 2;endArrow=none;endFill=0;exitX=0.5;exitY=1;exitDx=0;exitDy=0;" edge="1" parent="1" source="7w4zLWjS5kB7MF0S2eMy-364" target="7w4zLWjS5kB7MF0S2eMy-433">
          <mxGeometry relative="1" as="geometry">
            <mxPoint x="259.96" y="250" as="sourcePoint" />
            <mxPoint x="1419.96" y="400" as="targetPoint" />
            <Array as="points">
              <mxPoint x="260" y="310" />
              <mxPoint x="1740" y="310" />
            </Array>
          </mxGeometry>
        </mxCell>
        <mxCell id="7w4zLWjS5kB7MF0S2eMy-368" style="edgeStyle=orthogonalEdgeStyle;rounded=0;orthogonalLoop=1;jettySize=auto;html=1;entryX=1;entryY=0;entryDx=0;entryDy=0;fillColor=#f8cecc;strokeColor=#b85450;dashed=1;dashPattern=1 2;endArrow=none;endFill=0;exitX=0.5;exitY=1;exitDx=0;exitDy=0;" edge="1" parent="1" source="7w4zLWjS5kB7MF0S2eMy-365" target="7w4zLWjS5kB7MF0S2eMy-472">
          <mxGeometry relative="1" as="geometry">
            <mxPoint x="300" y="250" as="sourcePoint" />
            <mxPoint x="2300" y="400" as="targetPoint" />
            <Array as="points">
              <mxPoint x="300" y="300" />
              <mxPoint x="2020" y="300" />
            </Array>
          </mxGeometry>
        </mxCell>
        <mxCell id="7w4zLWjS5kB7MF0S2eMy-370" value="" style="endArrow=none;html=1;rounded=0;startArrow=oval;startFill=1;dashed=1;" edge="1" parent="1">
          <mxGeometry width="50" height="50" relative="1" as="geometry">
            <mxPoint x="220" y="170" as="sourcePoint" />
            <mxPoint x="260" y="150" as="targetPoint" />
          </mxGeometry>
        </mxCell>
        <mxCell id="7w4zLWjS5kB7MF0S2eMy-373" value="" style="endArrow=oval;html=1;rounded=0;startArrow=oval;startFill=1;dashed=1;endFill=1;" edge="1" parent="1">
          <mxGeometry width="50" height="50" relative="1" as="geometry">
            <mxPoint x="260" y="150" as="sourcePoint" />
            <mxPoint x="300" y="140" as="targetPoint" />
          </mxGeometry>
        </mxCell>
        <mxCell id="7w4zLWjS5kB7MF0S2eMy-385" style="rounded=0;orthogonalLoop=1;jettySize=auto;html=1;entryX=0.5;entryY=1;entryDx=0;entryDy=0;fillColor=#e1d5e7;strokeColor=#9673a6;exitX=1;exitY=0;exitDx=0;exitDy=0;" edge="1" parent="1">
          <mxGeometry relative="1" as="geometry">
            <mxPoint x="559.9300000000001" y="560" as="sourcePoint" />
            <mxPoint x="619.9300000000001" y="440" as="targetPoint" />
          </mxGeometry>
        </mxCell>
        <mxCell id="7w4zLWjS5kB7MF0S2eMy-386" value="&lt;font style=&quot;font-size: 11px;&quot;&gt;&lt;span style=&quot;color: light-dark(rgb(97, 53, 131), rgb(237, 237, 237));&quot;&gt;w&lt;sub&gt;o1&lt;/sub&gt;&lt;/span&gt;&lt;/font&gt;" style="edgeLabel;html=1;align=center;verticalAlign=middle;resizable=0;points=[];" vertex="1" connectable="0" parent="7w4zLWjS5kB7MF0S2eMy-385">
          <mxGeometry x="0.4505" y="-1" relative="1" as="geometry">
            <mxPoint x="-34" y="26" as="offset" />
          </mxGeometry>
        </mxCell>
        <mxCell id="7w4zLWjS5kB7MF0S2eMy-387" style="rounded=0;orthogonalLoop=1;jettySize=auto;html=1;entryX=0.5;entryY=1;entryDx=0;entryDy=0;fillColor=#e1d5e7;strokeColor=#9673a6;exitX=1;exitY=0;exitDx=0;exitDy=0;" edge="1" parent="1">
          <mxGeometry relative="1" as="geometry">
            <mxPoint x="679.9300000000001" y="560" as="sourcePoint" />
            <mxPoint x="619.9300000000001" y="440" as="targetPoint" />
          </mxGeometry>
        </mxCell>
        <mxCell id="7w4zLWjS5kB7MF0S2eMy-388" value="&lt;span style=&quot;color: light-dark(rgb(97, 53, 131), rgb(237, 237, 237));&quot;&gt;w&lt;sub&gt;o2&lt;/sub&gt;&lt;/span&gt;" style="edgeLabel;html=1;align=center;verticalAlign=middle;resizable=0;points=[];" vertex="1" connectable="0" parent="7w4zLWjS5kB7MF0S2eMy-387">
          <mxGeometry x="-0.2047" y="3" relative="1" as="geometry">
            <mxPoint x="17" y="-13" as="offset" />
          </mxGeometry>
        </mxCell>
        <mxCell id="7w4zLWjS5kB7MF0S2eMy-389" style="rounded=0;orthogonalLoop=1;jettySize=auto;html=1;entryX=0.5;entryY=1;entryDx=0;entryDy=0;fillColor=#e1d5e7;strokeColor=#9673a6;exitX=1;exitY=0;exitDx=0;exitDy=0;" edge="1" parent="1">
          <mxGeometry relative="1" as="geometry">
            <mxPoint x="839.9" y="560" as="sourcePoint" />
            <mxPoint x="899.9" y="440" as="targetPoint" />
          </mxGeometry>
        </mxCell>
        <mxCell id="7w4zLWjS5kB7MF0S2eMy-390" value="&lt;font style=&quot;font-size: 11px;&quot;&gt;&lt;span style=&quot;color: light-dark(rgb(97, 53, 131), rgb(237, 237, 237));&quot;&gt;w&lt;sub&gt;o1&lt;/sub&gt;&lt;/span&gt;&lt;/font&gt;" style="edgeLabel;html=1;align=center;verticalAlign=middle;resizable=0;points=[];" vertex="1" connectable="0" parent="7w4zLWjS5kB7MF0S2eMy-389">
          <mxGeometry x="0.4505" y="-1" relative="1" as="geometry">
            <mxPoint x="-34" y="26" as="offset" />
          </mxGeometry>
        </mxCell>
        <mxCell id="7w4zLWjS5kB7MF0S2eMy-391" style="rounded=0;orthogonalLoop=1;jettySize=auto;html=1;entryX=0.5;entryY=1;entryDx=0;entryDy=0;fillColor=#e1d5e7;strokeColor=#9673a6;exitX=1;exitY=0;exitDx=0;exitDy=0;" edge="1" parent="1">
          <mxGeometry relative="1" as="geometry">
            <mxPoint x="959.9" y="560" as="sourcePoint" />
            <mxPoint x="899.9" y="440" as="targetPoint" />
          </mxGeometry>
        </mxCell>
        <mxCell id="7w4zLWjS5kB7MF0S2eMy-392" value="&lt;span style=&quot;color: light-dark(rgb(97, 53, 131), rgb(237, 237, 237));&quot;&gt;w&lt;sub&gt;o2&lt;/sub&gt;&lt;/span&gt;" style="edgeLabel;html=1;align=center;verticalAlign=middle;resizable=0;points=[];" vertex="1" connectable="0" parent="7w4zLWjS5kB7MF0S2eMy-391">
          <mxGeometry x="-0.2047" y="3" relative="1" as="geometry">
            <mxPoint x="17" y="-13" as="offset" />
          </mxGeometry>
        </mxCell>
        <mxCell id="7w4zLWjS5kB7MF0S2eMy-393" style="rounded=0;orthogonalLoop=1;jettySize=auto;html=1;entryX=0.5;entryY=1;entryDx=0;entryDy=0;fillColor=#e1d5e7;strokeColor=#9673a6;exitX=1;exitY=0;exitDx=0;exitDy=0;" edge="1" parent="1">
          <mxGeometry relative="1" as="geometry">
            <mxPoint x="1120" y="560" as="sourcePoint" />
            <mxPoint x="1180" y="440" as="targetPoint" />
          </mxGeometry>
        </mxCell>
        <mxCell id="7w4zLWjS5kB7MF0S2eMy-394" value="&lt;font style=&quot;font-size: 11px;&quot;&gt;&lt;span style=&quot;color: light-dark(rgb(97, 53, 131), rgb(237, 237, 237));&quot;&gt;w&lt;sub&gt;o1&lt;/sub&gt;&lt;/span&gt;&lt;/font&gt;" style="edgeLabel;html=1;align=center;verticalAlign=middle;resizable=0;points=[];" vertex="1" connectable="0" parent="7w4zLWjS5kB7MF0S2eMy-393">
          <mxGeometry x="0.4505" y="-1" relative="1" as="geometry">
            <mxPoint x="-34" y="26" as="offset" />
          </mxGeometry>
        </mxCell>
        <mxCell id="7w4zLWjS5kB7MF0S2eMy-395" style="rounded=0;orthogonalLoop=1;jettySize=auto;html=1;entryX=0.5;entryY=1;entryDx=0;entryDy=0;fillColor=#e1d5e7;strokeColor=#9673a6;exitX=1;exitY=0;exitDx=0;exitDy=0;" edge="1" parent="1">
          <mxGeometry relative="1" as="geometry">
            <mxPoint x="1240" y="560" as="sourcePoint" />
            <mxPoint x="1180" y="440" as="targetPoint" />
          </mxGeometry>
        </mxCell>
        <mxCell id="7w4zLWjS5kB7MF0S2eMy-396" value="&lt;span style=&quot;color: light-dark(rgb(97, 53, 131), rgb(237, 237, 237));&quot;&gt;w&lt;sub&gt;o2&lt;/sub&gt;&lt;/span&gt;" style="edgeLabel;html=1;align=center;verticalAlign=middle;resizable=0;points=[];" vertex="1" connectable="0" parent="7w4zLWjS5kB7MF0S2eMy-395">
          <mxGeometry x="-0.2047" y="3" relative="1" as="geometry">
            <mxPoint x="17" y="-13" as="offset" />
          </mxGeometry>
        </mxCell>
        <mxCell id="7w4zLWjS5kB7MF0S2eMy-397" style="rounded=0;orthogonalLoop=1;jettySize=auto;html=1;entryX=0.5;entryY=1;entryDx=0;entryDy=0;fillColor=#e1d5e7;strokeColor=#9673a6;exitX=1;exitY=0;exitDx=0;exitDy=0;" edge="1" parent="1">
          <mxGeometry relative="1" as="geometry">
            <mxPoint x="1399.97" y="560" as="sourcePoint" />
            <mxPoint x="1459.97" y="440" as="targetPoint" />
          </mxGeometry>
        </mxCell>
        <mxCell id="7w4zLWjS5kB7MF0S2eMy-398" value="&lt;font style=&quot;font-size: 11px;&quot;&gt;&lt;span style=&quot;color: light-dark(rgb(97, 53, 131), rgb(237, 237, 237));&quot;&gt;w&lt;sub&gt;o1&lt;/sub&gt;&lt;/span&gt;&lt;/font&gt;" style="edgeLabel;html=1;align=center;verticalAlign=middle;resizable=0;points=[];" vertex="1" connectable="0" parent="7w4zLWjS5kB7MF0S2eMy-397">
          <mxGeometry x="0.4505" y="-1" relative="1" as="geometry">
            <mxPoint x="-34" y="26" as="offset" />
          </mxGeometry>
        </mxCell>
        <mxCell id="7w4zLWjS5kB7MF0S2eMy-399" style="rounded=0;orthogonalLoop=1;jettySize=auto;html=1;entryX=0.5;entryY=1;entryDx=0;entryDy=0;fillColor=#e1d5e7;strokeColor=#9673a6;exitX=1;exitY=0;exitDx=0;exitDy=0;" edge="1" parent="1">
          <mxGeometry relative="1" as="geometry">
            <mxPoint x="1519.97" y="560" as="sourcePoint" />
            <mxPoint x="1459.97" y="440" as="targetPoint" />
          </mxGeometry>
        </mxCell>
        <mxCell id="7w4zLWjS5kB7MF0S2eMy-400" value="&lt;span style=&quot;color: light-dark(rgb(97, 53, 131), rgb(237, 237, 237));&quot;&gt;w&lt;sub&gt;o2&lt;/sub&gt;&lt;/span&gt;" style="edgeLabel;html=1;align=center;verticalAlign=middle;resizable=0;points=[];" vertex="1" connectable="0" parent="7w4zLWjS5kB7MF0S2eMy-399">
          <mxGeometry x="-0.2047" y="3" relative="1" as="geometry">
            <mxPoint x="17" y="-13" as="offset" />
          </mxGeometry>
        </mxCell>
        <mxCell id="7w4zLWjS5kB7MF0S2eMy-401" value="" style="curved=1;endArrow=classic;html=1;rounded=0;exitX=0.56;exitY=1.014;exitDx=0;exitDy=0;exitPerimeter=0;entryX=0.5;entryY=1;entryDx=0;entryDy=0;fillColor=#fff2cc;strokeColor=#d6b656;" edge="1" parent="1">
          <mxGeometry width="50" height="50" relative="1" as="geometry">
            <mxPoint x="1520" y="601.0000000000005" as="sourcePoint" />
            <mxPoint x="1675" y="600.0000000000005" as="targetPoint" />
            <Array as="points">
              <mxPoint x="1555" y="630.0000000000005" />
              <mxPoint x="1635" y="630.0000000000005" />
            </Array>
          </mxGeometry>
        </mxCell>
        <mxCell id="7w4zLWjS5kB7MF0S2eMy-402" value="&lt;span style=&quot;color: light-dark(rgb(229, 165, 10), rgb(237, 237, 237));&quot;&gt;w&lt;sub&gt;h3&lt;/sub&gt;&lt;/span&gt;" style="edgeLabel;html=1;align=center;verticalAlign=middle;resizable=0;points=[];" vertex="1" connectable="0" parent="7w4zLWjS5kB7MF0S2eMy-401">
          <mxGeometry x="0.3137" y="5" relative="1" as="geometry">
            <mxPoint y="-15" as="offset" />
          </mxGeometry>
        </mxCell>
        <mxCell id="7w4zLWjS5kB7MF0S2eMy-403" value="" style="curved=1;endArrow=classic;html=1;rounded=0;exitX=0.5;exitY=1;exitDx=0;exitDy=0;entryX=0.5;entryY=1;entryDx=0;entryDy=0;fillColor=#fff2cc;strokeColor=#d6b656;" edge="1" parent="1">
          <mxGeometry width="50" height="50" relative="1" as="geometry">
            <mxPoint x="1400.03" y="560.0000000000005" as="sourcePoint" />
            <mxPoint x="1680.03" y="560.0000000000005" as="targetPoint" />
            <Array as="points">
              <mxPoint x="1440.13" y="520" />
              <mxPoint x="1639.9299999999998" y="520.0000000000005" />
            </Array>
          </mxGeometry>
        </mxCell>
        <mxCell id="7w4zLWjS5kB7MF0S2eMy-404" value="&lt;span style=&quot;color: light-dark(rgb(229, 165, 10), rgb(237, 237, 237));&quot;&gt;w&lt;sub&gt;h2&lt;/sub&gt;&lt;/span&gt;" style="edgeLabel;html=1;align=center;verticalAlign=middle;resizable=0;points=[];" vertex="1" connectable="0" parent="7w4zLWjS5kB7MF0S2eMy-403">
          <mxGeometry x="0.0929" relative="1" as="geometry">
            <mxPoint x="-4" y="10" as="offset" />
          </mxGeometry>
        </mxCell>
        <mxCell id="7w4zLWjS5kB7MF0S2eMy-405" value="" style="curved=1;endArrow=classic;html=1;rounded=0;exitX=0.5;exitY=1;exitDx=0;exitDy=0;entryX=0.5;entryY=1;entryDx=0;entryDy=0;fillColor=#fff2cc;strokeColor=#d6b656;" edge="1" parent="1">
          <mxGeometry width="50" height="50" relative="1" as="geometry">
            <mxPoint x="1520" y="600.0000000000005" as="sourcePoint" />
            <mxPoint x="1800" y="600.0000000000005" as="targetPoint" />
            <Array as="points">
              <mxPoint x="1560.13" y="640.0000000000005" />
              <mxPoint x="1759.9" y="640.0000000000005" />
            </Array>
          </mxGeometry>
        </mxCell>
        <mxCell id="7w4zLWjS5kB7MF0S2eMy-406" value="&lt;span style=&quot;color: light-dark(rgb(229, 165, 10), rgb(237, 237, 237));&quot;&gt;w&lt;sub&gt;h4&lt;/sub&gt;&lt;/span&gt;" style="edgeLabel;html=1;align=center;verticalAlign=middle;resizable=0;points=[];" vertex="1" connectable="0" parent="7w4zLWjS5kB7MF0S2eMy-405">
          <mxGeometry x="-0.0928" y="1" relative="1" as="geometry">
            <mxPoint x="-6" y="11" as="offset" />
          </mxGeometry>
        </mxCell>
        <mxCell id="7w4zLWjS5kB7MF0S2eMy-407" value="" style="curved=1;endArrow=classic;html=1;rounded=0;exitX=0.5;exitY=1;exitDx=0;exitDy=0;entryX=0.5;entryY=0;entryDx=0;entryDy=0;fillColor=#fff2cc;strokeColor=#d6b656;" edge="1" parent="1">
          <mxGeometry width="50" height="50" relative="1" as="geometry">
            <mxPoint x="1400" y="560.0000000000005" as="sourcePoint" />
            <mxPoint x="1800.0300000000002" y="560" as="targetPoint" />
            <Array as="points">
              <mxPoint x="1440.13" y="520" />
              <mxPoint x="1600.13" y="500" />
              <mxPoint x="1760.13" y="520" />
            </Array>
          </mxGeometry>
        </mxCell>
        <mxCell id="7w4zLWjS5kB7MF0S2eMy-408" value="&lt;span style=&quot;color: light-dark(rgb(229, 165, 10), rgb(237, 237, 237));&quot;&gt;w&lt;sub&gt;h1&lt;/sub&gt;&lt;/span&gt;" style="edgeLabel;html=1;align=center;verticalAlign=middle;resizable=0;points=[];" vertex="1" connectable="0" parent="7w4zLWjS5kB7MF0S2eMy-407">
          <mxGeometry x="-0.0571" y="1" relative="1" as="geometry">
            <mxPoint y="-9" as="offset" />
          </mxGeometry>
        </mxCell>
        <mxCell id="7w4zLWjS5kB7MF0S2eMy-409" style="rounded=0;orthogonalLoop=1;jettySize=auto;html=1;fillColor=#f8cecc;strokeColor=#b85450;entryX=0.5;entryY=1;entryDx=0;entryDy=0;exitX=0.5;exitY=0;exitDx=0;exitDy=0;" edge="1" parent="1" target="7w4zLWjS5kB7MF0S2eMy-424">
          <mxGeometry relative="1" as="geometry">
            <mxPoint x="1799.9" y="400" as="targetPoint" />
            <mxPoint x="1740" y="720" as="sourcePoint" />
          </mxGeometry>
        </mxCell>
        <mxCell id="7w4zLWjS5kB7MF0S2eMy-410" value="&lt;font color=&quot;#a51d2d&quot;&gt;w&lt;sub&gt;i2&lt;/sub&gt;&lt;/font&gt;" style="edgeLabel;html=1;align=center;verticalAlign=middle;resizable=0;points=[];fontFamily=Times New Roman;" vertex="1" connectable="0" parent="7w4zLWjS5kB7MF0S2eMy-409">
          <mxGeometry x="-0.2589" relative="1" as="geometry">
            <mxPoint x="-8" y="14" as="offset" />
          </mxGeometry>
        </mxCell>
        <mxCell id="7w4zLWjS5kB7MF0S2eMy-411" style="rounded=0;orthogonalLoop=1;jettySize=auto;html=1;fillColor=#f8cecc;strokeColor=#b85450;exitX=0.5;exitY=0;exitDx=0;exitDy=0;entryX=0.5;entryY=1;entryDx=0;entryDy=0;" edge="1" parent="1" target="7w4zLWjS5kB7MF0S2eMy-424">
          <mxGeometry relative="1" as="geometry">
            <mxPoint x="1700" y="720" as="sourcePoint" />
            <mxPoint x="1800.9" y="400" as="targetPoint" />
          </mxGeometry>
        </mxCell>
        <mxCell id="7w4zLWjS5kB7MF0S2eMy-412" value="&lt;font color=&quot;#a51d2d&quot;&gt;w&lt;sub&gt;i1&lt;/sub&gt;&lt;/font&gt;" style="edgeLabel;html=1;align=center;verticalAlign=middle;resizable=0;points=[];fontFamily=Times New Roman;" vertex="1" connectable="0" parent="7w4zLWjS5kB7MF0S2eMy-411">
          <mxGeometry x="-0.2589" relative="1" as="geometry">
            <mxPoint x="-13" y="-14" as="offset" />
          </mxGeometry>
        </mxCell>
        <mxCell id="7w4zLWjS5kB7MF0S2eMy-413" style="rounded=0;orthogonalLoop=1;jettySize=auto;html=1;fillColor=#f8cecc;strokeColor=#b85450;exitX=0.5;exitY=0;exitDx=0;exitDy=0;entryX=0.5;entryY=1;entryDx=0;entryDy=0;" edge="1" parent="1" target="7w4zLWjS5kB7MF0S2eMy-424">
          <mxGeometry relative="1" as="geometry">
            <mxPoint x="1780" y="720" as="sourcePoint" />
            <mxPoint x="1799.9" y="400" as="targetPoint" />
          </mxGeometry>
        </mxCell>
        <mxCell id="7w4zLWjS5kB7MF0S2eMy-414" value="&lt;font color=&quot;#a51d2d&quot;&gt;w&lt;sub&gt;i3&lt;/sub&gt;&lt;/font&gt;" style="edgeLabel;html=1;align=center;verticalAlign=middle;resizable=0;points=[];fontFamily=Times New Roman;" vertex="1" connectable="0" parent="7w4zLWjS5kB7MF0S2eMy-413">
          <mxGeometry x="-0.2589" relative="1" as="geometry">
            <mxPoint x="-13" y="-35" as="offset" />
          </mxGeometry>
        </mxCell>
        <mxCell id="7w4zLWjS5kB7MF0S2eMy-415" style="rounded=0;orthogonalLoop=1;jettySize=auto;html=1;fillColor=#f8cecc;strokeColor=#b85450;entryX=0.5;entryY=1;entryDx=0;entryDy=0;exitX=0.5;exitY=0;exitDx=0;exitDy=0;" edge="1" parent="1" target="7w4zLWjS5kB7MF0S2eMy-422">
          <mxGeometry relative="1" as="geometry">
            <mxPoint x="1740" y="720" as="sourcePoint" />
            <mxPoint x="1810.9" y="335" as="targetPoint" />
          </mxGeometry>
        </mxCell>
        <mxCell id="7w4zLWjS5kB7MF0S2eMy-416" value="&lt;font color=&quot;#a51d2d&quot;&gt;w&lt;sub&gt;i5&lt;/sub&gt;&lt;/font&gt;" style="edgeLabel;html=1;align=center;verticalAlign=middle;resizable=0;points=[];fontFamily=Times New Roman;" vertex="1" connectable="0" parent="7w4zLWjS5kB7MF0S2eMy-415">
          <mxGeometry x="-0.2589" relative="1" as="geometry">
            <mxPoint x="8" y="12" as="offset" />
          </mxGeometry>
        </mxCell>
        <mxCell id="7w4zLWjS5kB7MF0S2eMy-417" style="rounded=0;orthogonalLoop=1;jettySize=auto;html=1;fillColor=#f8cecc;strokeColor=#b85450;exitX=0.5;exitY=0;exitDx=0;exitDy=0;entryX=0.5;entryY=1;entryDx=0;entryDy=0;" edge="1" parent="1" target="7w4zLWjS5kB7MF0S2eMy-422">
          <mxGeometry relative="1" as="geometry">
            <mxPoint x="1700" y="720" as="sourcePoint" />
            <mxPoint x="1809.9" y="328" as="targetPoint" />
          </mxGeometry>
        </mxCell>
        <mxCell id="7w4zLWjS5kB7MF0S2eMy-418" value="&lt;font color=&quot;#a51d2d&quot;&gt;w&lt;sub&gt;i4&lt;/sub&gt;&lt;/font&gt;" style="edgeLabel;html=1;align=center;verticalAlign=middle;resizable=0;points=[];fontFamily=Times New Roman;" vertex="1" connectable="0" parent="7w4zLWjS5kB7MF0S2eMy-417">
          <mxGeometry x="-0.2589" relative="1" as="geometry">
            <mxPoint x="13" y="-35" as="offset" />
          </mxGeometry>
        </mxCell>
        <mxCell id="7w4zLWjS5kB7MF0S2eMy-419" style="rounded=0;orthogonalLoop=1;jettySize=auto;html=1;fillColor=#f8cecc;strokeColor=#b85450;exitX=0.5;exitY=0;exitDx=0;exitDy=0;entryX=0.5;entryY=1;entryDx=0;entryDy=0;" edge="1" parent="1" target="7w4zLWjS5kB7MF0S2eMy-422">
          <mxGeometry relative="1" as="geometry">
            <mxPoint x="1780" y="720" as="sourcePoint" />
            <mxPoint x="1810.9" y="343" as="targetPoint" />
          </mxGeometry>
        </mxCell>
        <mxCell id="7w4zLWjS5kB7MF0S2eMy-420" value="&lt;font color=&quot;#a51d2d&quot;&gt;w&lt;sub&gt;i6&lt;/sub&gt;&lt;/font&gt;" style="edgeLabel;html=1;align=center;verticalAlign=middle;resizable=0;points=[];fontFamily=Times New Roman;" vertex="1" connectable="0" parent="7w4zLWjS5kB7MF0S2eMy-419">
          <mxGeometry x="-0.2589" relative="1" as="geometry">
            <mxPoint x="13" y="-16" as="offset" />
          </mxGeometry>
        </mxCell>
        <mxCell id="7w4zLWjS5kB7MF0S2eMy-422" value="" style="ellipse;whiteSpace=wrap;html=1;aspect=fixed;strokeWidth=2;" vertex="1" parent="1">
          <mxGeometry x="1780" y="560" width="40" height="40" as="geometry" />
        </mxCell>
        <mxCell id="7w4zLWjS5kB7MF0S2eMy-423" value="" style="endArrow=none;html=1;rounded=0;entryX=0.5;entryY=0;entryDx=0;entryDy=0;exitX=0.5;exitY=1;exitDx=0;exitDy=0;" edge="1" parent="1" source="7w4zLWjS5kB7MF0S2eMy-422" target="7w4zLWjS5kB7MF0S2eMy-422">
          <mxGeometry width="50" height="50" relative="1" as="geometry">
            <mxPoint x="1630" y="1030" as="sourcePoint" />
            <mxPoint x="1680" y="980" as="targetPoint" />
          </mxGeometry>
        </mxCell>
        <mxCell id="7w4zLWjS5kB7MF0S2eMy-424" value="" style="ellipse;whiteSpace=wrap;html=1;aspect=fixed;strokeWidth=2;" vertex="1" parent="1">
          <mxGeometry x="1660" y="560" width="40" height="40" as="geometry" />
        </mxCell>
        <mxCell id="7w4zLWjS5kB7MF0S2eMy-425" value="" style="endArrow=none;html=1;rounded=0;entryX=0.5;entryY=0;entryDx=0;entryDy=0;exitX=0.5;exitY=1;exitDx=0;exitDy=0;" edge="1" parent="1" source="7w4zLWjS5kB7MF0S2eMy-424" target="7w4zLWjS5kB7MF0S2eMy-424">
          <mxGeometry width="50" height="50" relative="1" as="geometry">
            <mxPoint x="1510" y="1030" as="sourcePoint" />
            <mxPoint x="1560" y="980" as="targetPoint" />
          </mxGeometry>
        </mxCell>
        <mxCell id="7w4zLWjS5kB7MF0S2eMy-426" value="&lt;div align=&quot;center&quot;&gt;&lt;font style=&quot;font-size: 16px;&quot;&gt;Σ&lt;/font&gt;&lt;/div&gt;" style="text;html=1;align=center;verticalAlign=middle;whiteSpace=wrap;rounded=0;" vertex="1" parent="1">
          <mxGeometry x="1660" y="560" width="20" height="40" as="geometry" />
        </mxCell>
        <mxCell id="7w4zLWjS5kB7MF0S2eMy-427" value="&lt;font style=&quot;font-size: 16px;&quot;&gt;f&lt;/font&gt;" style="text;html=1;align=center;verticalAlign=middle;whiteSpace=wrap;rounded=0;" vertex="1" parent="1">
          <mxGeometry x="1680" y="560" width="20" height="40" as="geometry" />
        </mxCell>
        <mxCell id="7w4zLWjS5kB7MF0S2eMy-428" value="&lt;div align=&quot;center&quot;&gt;&lt;font style=&quot;font-size: 16px;&quot;&gt;Σ&lt;/font&gt;&lt;/div&gt;" style="text;html=1;align=center;verticalAlign=middle;whiteSpace=wrap;rounded=0;" vertex="1" parent="1">
          <mxGeometry x="1780" y="560" width="20" height="40" as="geometry" />
        </mxCell>
        <mxCell id="7w4zLWjS5kB7MF0S2eMy-429" value="&lt;font style=&quot;font-size: 16px;&quot;&gt;f&lt;/font&gt;" style="text;html=1;align=center;verticalAlign=middle;whiteSpace=wrap;rounded=0;" vertex="1" parent="1">
          <mxGeometry x="1800" y="560" width="20" height="40" as="geometry" />
        </mxCell>
        <mxCell id="7w4zLWjS5kB7MF0S2eMy-430" value="" style="ellipse;whiteSpace=wrap;html=1;aspect=fixed;strokeWidth=2;" vertex="1" parent="1">
          <mxGeometry x="1720" y="400" width="40" height="40" as="geometry" />
        </mxCell>
        <mxCell id="7w4zLWjS5kB7MF0S2eMy-431" value="" style="endArrow=none;html=1;rounded=0;entryX=0.5;entryY=0;entryDx=0;entryDy=0;exitX=0.5;exitY=1;exitDx=0;exitDy=0;" edge="1" parent="1" source="7w4zLWjS5kB7MF0S2eMy-430" target="7w4zLWjS5kB7MF0S2eMy-430">
          <mxGeometry width="50" height="50" relative="1" as="geometry">
            <mxPoint x="1570" y="870" as="sourcePoint" />
            <mxPoint x="1620" y="820" as="targetPoint" />
          </mxGeometry>
        </mxCell>
        <mxCell id="7w4zLWjS5kB7MF0S2eMy-432" value="&lt;div align=&quot;center&quot;&gt;&lt;font style=&quot;font-size: 16px;&quot;&gt;Σ&lt;/font&gt;&lt;/div&gt;" style="text;html=1;align=center;verticalAlign=middle;whiteSpace=wrap;rounded=0;" vertex="1" parent="1">
          <mxGeometry x="1720" y="400" width="20" height="40" as="geometry" />
        </mxCell>
        <mxCell id="7w4zLWjS5kB7MF0S2eMy-433" value="&lt;font style=&quot;font-size: 16px;&quot;&gt;f&lt;/font&gt;" style="text;html=1;align=center;verticalAlign=middle;whiteSpace=wrap;rounded=0;" vertex="1" parent="1">
          <mxGeometry x="1740" y="400" width="20" height="40" as="geometry" />
        </mxCell>
        <mxCell id="7w4zLWjS5kB7MF0S2eMy-434" value="..." style="rounded=0;whiteSpace=wrap;html=1;fillColor=#f8cecc;strokeColor=#b85450;" vertex="1" parent="1">
          <mxGeometry x="1719.97" y="720" width="40" height="40" as="geometry" />
        </mxCell>
        <mxCell id="7w4zLWjS5kB7MF0S2eMy-437" style="rounded=0;orthogonalLoop=1;jettySize=auto;html=1;entryX=0.5;entryY=1;entryDx=0;entryDy=0;fillColor=#e1d5e7;strokeColor=#9673a6;exitX=1;exitY=0;exitDx=0;exitDy=0;" edge="1" parent="1">
          <mxGeometry relative="1" as="geometry">
            <mxPoint x="1679.97" y="560" as="sourcePoint" />
            <mxPoint x="1739.97" y="440" as="targetPoint" />
          </mxGeometry>
        </mxCell>
        <mxCell id="7w4zLWjS5kB7MF0S2eMy-438" value="&lt;font style=&quot;font-size: 11px;&quot;&gt;&lt;span style=&quot;color: light-dark(rgb(97, 53, 131), rgb(237, 237, 237));&quot;&gt;w&lt;sub&gt;o1&lt;/sub&gt;&lt;/span&gt;&lt;/font&gt;" style="edgeLabel;html=1;align=center;verticalAlign=middle;resizable=0;points=[];" vertex="1" connectable="0" parent="7w4zLWjS5kB7MF0S2eMy-437">
          <mxGeometry x="0.4505" y="-1" relative="1" as="geometry">
            <mxPoint x="-34" y="26" as="offset" />
          </mxGeometry>
        </mxCell>
        <mxCell id="7w4zLWjS5kB7MF0S2eMy-439" style="rounded=0;orthogonalLoop=1;jettySize=auto;html=1;entryX=0.5;entryY=1;entryDx=0;entryDy=0;fillColor=#e1d5e7;strokeColor=#9673a6;exitX=1;exitY=0;exitDx=0;exitDy=0;" edge="1" parent="1">
          <mxGeometry relative="1" as="geometry">
            <mxPoint x="1799.97" y="560" as="sourcePoint" />
            <mxPoint x="1739.97" y="440" as="targetPoint" />
          </mxGeometry>
        </mxCell>
        <mxCell id="7w4zLWjS5kB7MF0S2eMy-440" value="&lt;span style=&quot;color: light-dark(rgb(97, 53, 131), rgb(237, 237, 237));&quot;&gt;w&lt;sub&gt;o2&lt;/sub&gt;&lt;/span&gt;" style="edgeLabel;html=1;align=center;verticalAlign=middle;resizable=0;points=[];" vertex="1" connectable="0" parent="7w4zLWjS5kB7MF0S2eMy-439">
          <mxGeometry x="-0.2047" y="3" relative="1" as="geometry">
            <mxPoint x="17" y="-13" as="offset" />
          </mxGeometry>
        </mxCell>
        <mxCell id="7w4zLWjS5kB7MF0S2eMy-441" value="" style="curved=1;endArrow=classic;html=1;rounded=0;exitX=0.56;exitY=1.014;exitDx=0;exitDy=0;exitPerimeter=0;entryX=0.5;entryY=1;entryDx=0;entryDy=0;fillColor=#fff2cc;strokeColor=#d6b656;" edge="1" parent="1">
          <mxGeometry width="50" height="50" relative="1" as="geometry">
            <mxPoint x="1800" y="601.0000000000005" as="sourcePoint" />
            <mxPoint x="1955" y="600.0000000000005" as="targetPoint" />
            <Array as="points">
              <mxPoint x="1835" y="630.0000000000005" />
              <mxPoint x="1915" y="630.0000000000005" />
            </Array>
          </mxGeometry>
        </mxCell>
        <mxCell id="7w4zLWjS5kB7MF0S2eMy-442" value="&lt;span style=&quot;color: light-dark(rgb(229, 165, 10), rgb(237, 237, 237));&quot;&gt;w&lt;sub&gt;h3&lt;/sub&gt;&lt;/span&gt;" style="edgeLabel;html=1;align=center;verticalAlign=middle;resizable=0;points=[];" vertex="1" connectable="0" parent="7w4zLWjS5kB7MF0S2eMy-441">
          <mxGeometry x="0.3137" y="5" relative="1" as="geometry">
            <mxPoint y="-15" as="offset" />
          </mxGeometry>
        </mxCell>
        <mxCell id="7w4zLWjS5kB7MF0S2eMy-443" value="" style="curved=1;endArrow=classic;html=1;rounded=0;exitX=0.5;exitY=1;exitDx=0;exitDy=0;entryX=0.5;entryY=1;entryDx=0;entryDy=0;fillColor=#fff2cc;strokeColor=#d6b656;" edge="1" parent="1">
          <mxGeometry width="50" height="50" relative="1" as="geometry">
            <mxPoint x="1680.03" y="560.0000000000005" as="sourcePoint" />
            <mxPoint x="1960.0299999999997" y="560.0000000000005" as="targetPoint" />
            <Array as="points">
              <mxPoint x="1720.13" y="520" />
              <mxPoint x="1919.9299999999998" y="520.0000000000005" />
            </Array>
          </mxGeometry>
        </mxCell>
        <mxCell id="7w4zLWjS5kB7MF0S2eMy-444" value="&lt;span style=&quot;color: light-dark(rgb(229, 165, 10), rgb(237, 237, 237));&quot;&gt;w&lt;sub&gt;h2&lt;/sub&gt;&lt;/span&gt;" style="edgeLabel;html=1;align=center;verticalAlign=middle;resizable=0;points=[];" vertex="1" connectable="0" parent="7w4zLWjS5kB7MF0S2eMy-443">
          <mxGeometry x="0.0929" relative="1" as="geometry">
            <mxPoint x="-4" y="10" as="offset" />
          </mxGeometry>
        </mxCell>
        <mxCell id="7w4zLWjS5kB7MF0S2eMy-445" value="" style="curved=1;endArrow=classic;html=1;rounded=0;exitX=0.5;exitY=1;exitDx=0;exitDy=0;entryX=0.5;entryY=1;entryDx=0;entryDy=0;fillColor=#fff2cc;strokeColor=#d6b656;" edge="1" parent="1">
          <mxGeometry width="50" height="50" relative="1" as="geometry">
            <mxPoint x="1800" y="600.0000000000005" as="sourcePoint" />
            <mxPoint x="2080" y="600.0000000000005" as="targetPoint" />
            <Array as="points">
              <mxPoint x="1840.13" y="640.0000000000005" />
              <mxPoint x="2039.9" y="640.0000000000005" />
            </Array>
          </mxGeometry>
        </mxCell>
        <mxCell id="7w4zLWjS5kB7MF0S2eMy-446" value="&lt;span style=&quot;color: light-dark(rgb(229, 165, 10), rgb(237, 237, 237));&quot;&gt;w&lt;sub&gt;h4&lt;/sub&gt;&lt;/span&gt;" style="edgeLabel;html=1;align=center;verticalAlign=middle;resizable=0;points=[];" vertex="1" connectable="0" parent="7w4zLWjS5kB7MF0S2eMy-445">
          <mxGeometry x="-0.0928" y="1" relative="1" as="geometry">
            <mxPoint x="-6" y="11" as="offset" />
          </mxGeometry>
        </mxCell>
        <mxCell id="7w4zLWjS5kB7MF0S2eMy-447" value="" style="curved=1;endArrow=classic;html=1;rounded=0;exitX=0.5;exitY=1;exitDx=0;exitDy=0;entryX=0.5;entryY=0;entryDx=0;entryDy=0;fillColor=#fff2cc;strokeColor=#d6b656;" edge="1" parent="1">
          <mxGeometry width="50" height="50" relative="1" as="geometry">
            <mxPoint x="1680" y="560.0000000000005" as="sourcePoint" />
            <mxPoint x="2080.03" y="560" as="targetPoint" />
            <Array as="points">
              <mxPoint x="1720.13" y="520" />
              <mxPoint x="1880.13" y="500" />
              <mxPoint x="2040.13" y="520" />
            </Array>
          </mxGeometry>
        </mxCell>
        <mxCell id="7w4zLWjS5kB7MF0S2eMy-448" value="&lt;span style=&quot;color: light-dark(rgb(229, 165, 10), rgb(237, 237, 237));&quot;&gt;w&lt;sub&gt;h1&lt;/sub&gt;&lt;/span&gt;" style="edgeLabel;html=1;align=center;verticalAlign=middle;resizable=0;points=[];" vertex="1" connectable="0" parent="7w4zLWjS5kB7MF0S2eMy-447">
          <mxGeometry x="-0.0571" y="1" relative="1" as="geometry">
            <mxPoint y="-9" as="offset" />
          </mxGeometry>
        </mxCell>
        <mxCell id="7w4zLWjS5kB7MF0S2eMy-449" style="rounded=0;orthogonalLoop=1;jettySize=auto;html=1;fillColor=#f8cecc;strokeColor=#b85450;entryX=0.5;entryY=1;entryDx=0;entryDy=0;exitX=0.5;exitY=0;exitDx=0;exitDy=0;" edge="1" parent="1" target="7w4zLWjS5kB7MF0S2eMy-464">
          <mxGeometry relative="1" as="geometry">
            <mxPoint x="2079.9" y="400" as="targetPoint" />
            <mxPoint x="2020" y="720" as="sourcePoint" />
          </mxGeometry>
        </mxCell>
        <mxCell id="7w4zLWjS5kB7MF0S2eMy-450" value="&lt;font color=&quot;#a51d2d&quot;&gt;w&lt;sub&gt;i2&lt;/sub&gt;&lt;/font&gt;" style="edgeLabel;html=1;align=center;verticalAlign=middle;resizable=0;points=[];fontFamily=Times New Roman;" vertex="1" connectable="0" parent="7w4zLWjS5kB7MF0S2eMy-449">
          <mxGeometry x="-0.2589" relative="1" as="geometry">
            <mxPoint x="-8" y="14" as="offset" />
          </mxGeometry>
        </mxCell>
        <mxCell id="7w4zLWjS5kB7MF0S2eMy-451" style="rounded=0;orthogonalLoop=1;jettySize=auto;html=1;fillColor=#f8cecc;strokeColor=#b85450;exitX=0.5;exitY=0;exitDx=0;exitDy=0;entryX=0.5;entryY=1;entryDx=0;entryDy=0;" edge="1" parent="1" target="7w4zLWjS5kB7MF0S2eMy-464">
          <mxGeometry relative="1" as="geometry">
            <mxPoint x="1980" y="720" as="sourcePoint" />
            <mxPoint x="2080.9" y="400" as="targetPoint" />
          </mxGeometry>
        </mxCell>
        <mxCell id="7w4zLWjS5kB7MF0S2eMy-452" value="&lt;font color=&quot;#a51d2d&quot;&gt;w&lt;sub&gt;i1&lt;/sub&gt;&lt;/font&gt;" style="edgeLabel;html=1;align=center;verticalAlign=middle;resizable=0;points=[];fontFamily=Times New Roman;" vertex="1" connectable="0" parent="7w4zLWjS5kB7MF0S2eMy-451">
          <mxGeometry x="-0.2589" relative="1" as="geometry">
            <mxPoint x="-13" y="-14" as="offset" />
          </mxGeometry>
        </mxCell>
        <mxCell id="7w4zLWjS5kB7MF0S2eMy-453" style="rounded=0;orthogonalLoop=1;jettySize=auto;html=1;fillColor=#f8cecc;strokeColor=#b85450;exitX=0.5;exitY=0;exitDx=0;exitDy=0;entryX=0.5;entryY=1;entryDx=0;entryDy=0;" edge="1" parent="1" target="7w4zLWjS5kB7MF0S2eMy-464">
          <mxGeometry relative="1" as="geometry">
            <mxPoint x="2060" y="720" as="sourcePoint" />
            <mxPoint x="2079.9" y="400" as="targetPoint" />
          </mxGeometry>
        </mxCell>
        <mxCell id="7w4zLWjS5kB7MF0S2eMy-454" value="&lt;font color=&quot;#a51d2d&quot;&gt;w&lt;sub&gt;i3&lt;/sub&gt;&lt;/font&gt;" style="edgeLabel;html=1;align=center;verticalAlign=middle;resizable=0;points=[];fontFamily=Times New Roman;" vertex="1" connectable="0" parent="7w4zLWjS5kB7MF0S2eMy-453">
          <mxGeometry x="-0.2589" relative="1" as="geometry">
            <mxPoint x="-13" y="-35" as="offset" />
          </mxGeometry>
        </mxCell>
        <mxCell id="7w4zLWjS5kB7MF0S2eMy-455" style="rounded=0;orthogonalLoop=1;jettySize=auto;html=1;fillColor=#f8cecc;strokeColor=#b85450;entryX=0.5;entryY=1;entryDx=0;entryDy=0;exitX=0.5;exitY=0;exitDx=0;exitDy=0;" edge="1" parent="1" target="7w4zLWjS5kB7MF0S2eMy-462">
          <mxGeometry relative="1" as="geometry">
            <mxPoint x="2020" y="720" as="sourcePoint" />
            <mxPoint x="2090.9" y="335" as="targetPoint" />
          </mxGeometry>
        </mxCell>
        <mxCell id="7w4zLWjS5kB7MF0S2eMy-456" value="&lt;font color=&quot;#a51d2d&quot;&gt;w&lt;sub&gt;i5&lt;/sub&gt;&lt;/font&gt;" style="edgeLabel;html=1;align=center;verticalAlign=middle;resizable=0;points=[];fontFamily=Times New Roman;" vertex="1" connectable="0" parent="7w4zLWjS5kB7MF0S2eMy-455">
          <mxGeometry x="-0.2589" relative="1" as="geometry">
            <mxPoint x="8" y="12" as="offset" />
          </mxGeometry>
        </mxCell>
        <mxCell id="7w4zLWjS5kB7MF0S2eMy-457" style="rounded=0;orthogonalLoop=1;jettySize=auto;html=1;fillColor=#f8cecc;strokeColor=#b85450;exitX=0.5;exitY=0;exitDx=0;exitDy=0;entryX=0.5;entryY=1;entryDx=0;entryDy=0;" edge="1" parent="1" target="7w4zLWjS5kB7MF0S2eMy-462">
          <mxGeometry relative="1" as="geometry">
            <mxPoint x="1980" y="720" as="sourcePoint" />
            <mxPoint x="2089.9" y="328" as="targetPoint" />
          </mxGeometry>
        </mxCell>
        <mxCell id="7w4zLWjS5kB7MF0S2eMy-458" value="&lt;font color=&quot;#a51d2d&quot;&gt;w&lt;sub&gt;i4&lt;/sub&gt;&lt;/font&gt;" style="edgeLabel;html=1;align=center;verticalAlign=middle;resizable=0;points=[];fontFamily=Times New Roman;" vertex="1" connectable="0" parent="7w4zLWjS5kB7MF0S2eMy-457">
          <mxGeometry x="-0.2589" relative="1" as="geometry">
            <mxPoint x="13" y="-35" as="offset" />
          </mxGeometry>
        </mxCell>
        <mxCell id="7w4zLWjS5kB7MF0S2eMy-459" style="rounded=0;orthogonalLoop=1;jettySize=auto;html=1;fillColor=#f8cecc;strokeColor=#b85450;exitX=0.5;exitY=0;exitDx=0;exitDy=0;entryX=0.5;entryY=1;entryDx=0;entryDy=0;" edge="1" parent="1" target="7w4zLWjS5kB7MF0S2eMy-462">
          <mxGeometry relative="1" as="geometry">
            <mxPoint x="2060" y="720" as="sourcePoint" />
            <mxPoint x="2090.9" y="343" as="targetPoint" />
          </mxGeometry>
        </mxCell>
        <mxCell id="7w4zLWjS5kB7MF0S2eMy-460" value="&lt;font color=&quot;#a51d2d&quot;&gt;w&lt;sub&gt;i6&lt;/sub&gt;&lt;/font&gt;" style="edgeLabel;html=1;align=center;verticalAlign=middle;resizable=0;points=[];fontFamily=Times New Roman;" vertex="1" connectable="0" parent="7w4zLWjS5kB7MF0S2eMy-459">
          <mxGeometry x="-0.2589" relative="1" as="geometry">
            <mxPoint x="13" y="-16" as="offset" />
          </mxGeometry>
        </mxCell>
        <mxCell id="7w4zLWjS5kB7MF0S2eMy-461" value="" style="endArrow=classic;html=1;rounded=0;fillColor=#f8cecc;strokeColor=#b85450;" edge="1" parent="1">
          <mxGeometry width="50" height="50" relative="1" as="geometry">
            <mxPoint x="2019.32" y="400" as="sourcePoint" />
            <mxPoint x="2019.32" y="370" as="targetPoint" />
          </mxGeometry>
        </mxCell>
        <mxCell id="7w4zLWjS5kB7MF0S2eMy-462" value="" style="ellipse;whiteSpace=wrap;html=1;aspect=fixed;strokeWidth=2;" vertex="1" parent="1">
          <mxGeometry x="2060" y="560" width="40" height="40" as="geometry" />
        </mxCell>
        <mxCell id="7w4zLWjS5kB7MF0S2eMy-463" value="" style="endArrow=none;html=1;rounded=0;entryX=0.5;entryY=0;entryDx=0;entryDy=0;exitX=0.5;exitY=1;exitDx=0;exitDy=0;" edge="1" parent="1" source="7w4zLWjS5kB7MF0S2eMy-462" target="7w4zLWjS5kB7MF0S2eMy-462">
          <mxGeometry width="50" height="50" relative="1" as="geometry">
            <mxPoint x="1910" y="1030" as="sourcePoint" />
            <mxPoint x="1960" y="980" as="targetPoint" />
          </mxGeometry>
        </mxCell>
        <mxCell id="7w4zLWjS5kB7MF0S2eMy-464" value="" style="ellipse;whiteSpace=wrap;html=1;aspect=fixed;strokeWidth=2;" vertex="1" parent="1">
          <mxGeometry x="1940" y="560" width="40" height="40" as="geometry" />
        </mxCell>
        <mxCell id="7w4zLWjS5kB7MF0S2eMy-465" value="" style="endArrow=none;html=1;rounded=0;entryX=0.5;entryY=0;entryDx=0;entryDy=0;exitX=0.5;exitY=1;exitDx=0;exitDy=0;" edge="1" parent="1" source="7w4zLWjS5kB7MF0S2eMy-464" target="7w4zLWjS5kB7MF0S2eMy-464">
          <mxGeometry width="50" height="50" relative="1" as="geometry">
            <mxPoint x="1790" y="1030" as="sourcePoint" />
            <mxPoint x="1840" y="980" as="targetPoint" />
          </mxGeometry>
        </mxCell>
        <mxCell id="7w4zLWjS5kB7MF0S2eMy-466" value="&lt;div align=&quot;center&quot;&gt;&lt;font style=&quot;font-size: 16px;&quot;&gt;Σ&lt;/font&gt;&lt;/div&gt;" style="text;html=1;align=center;verticalAlign=middle;whiteSpace=wrap;rounded=0;" vertex="1" parent="1">
          <mxGeometry x="1940" y="560" width="20" height="40" as="geometry" />
        </mxCell>
        <mxCell id="7w4zLWjS5kB7MF0S2eMy-467" value="&lt;font style=&quot;font-size: 16px;&quot;&gt;f&lt;/font&gt;" style="text;html=1;align=center;verticalAlign=middle;whiteSpace=wrap;rounded=0;" vertex="1" parent="1">
          <mxGeometry x="1960" y="560" width="20" height="40" as="geometry" />
        </mxCell>
        <mxCell id="7w4zLWjS5kB7MF0S2eMy-468" value="&lt;div align=&quot;center&quot;&gt;&lt;font style=&quot;font-size: 16px;&quot;&gt;Σ&lt;/font&gt;&lt;/div&gt;" style="text;html=1;align=center;verticalAlign=middle;whiteSpace=wrap;rounded=0;" vertex="1" parent="1">
          <mxGeometry x="2060" y="560" width="20" height="40" as="geometry" />
        </mxCell>
        <mxCell id="7w4zLWjS5kB7MF0S2eMy-469" value="&lt;font style=&quot;font-size: 16px;&quot;&gt;f&lt;/font&gt;" style="text;html=1;align=center;verticalAlign=middle;whiteSpace=wrap;rounded=0;" vertex="1" parent="1">
          <mxGeometry x="2080" y="560" width="20" height="40" as="geometry" />
        </mxCell>
        <mxCell id="7w4zLWjS5kB7MF0S2eMy-470" value="" style="ellipse;whiteSpace=wrap;html=1;aspect=fixed;strokeWidth=2;" vertex="1" parent="1">
          <mxGeometry x="2000" y="400" width="40" height="40" as="geometry" />
        </mxCell>
        <mxCell id="7w4zLWjS5kB7MF0S2eMy-471" value="" style="endArrow=none;html=1;rounded=0;entryX=0.5;entryY=0;entryDx=0;entryDy=0;exitX=0.5;exitY=1;exitDx=0;exitDy=0;" edge="1" parent="1" source="7w4zLWjS5kB7MF0S2eMy-470" target="7w4zLWjS5kB7MF0S2eMy-470">
          <mxGeometry width="50" height="50" relative="1" as="geometry">
            <mxPoint x="1850" y="870" as="sourcePoint" />
            <mxPoint x="1900" y="820" as="targetPoint" />
          </mxGeometry>
        </mxCell>
        <mxCell id="7w4zLWjS5kB7MF0S2eMy-472" value="&lt;div align=&quot;center&quot;&gt;&lt;font style=&quot;font-size: 16px;&quot;&gt;Σ&lt;/font&gt;&lt;/div&gt;" style="text;html=1;align=center;verticalAlign=middle;whiteSpace=wrap;rounded=0;" vertex="1" parent="1">
          <mxGeometry x="2000" y="400" width="20" height="40" as="geometry" />
        </mxCell>
        <mxCell id="7w4zLWjS5kB7MF0S2eMy-473" value="&lt;font style=&quot;font-size: 16px;&quot;&gt;f&lt;/font&gt;" style="text;html=1;align=center;verticalAlign=middle;whiteSpace=wrap;rounded=0;" vertex="1" parent="1">
          <mxGeometry x="2020" y="400" width="20" height="40" as="geometry" />
        </mxCell>
        <mxCell id="7w4zLWjS5kB7MF0S2eMy-474" value="..." style="rounded=0;whiteSpace=wrap;html=1;fillColor=#f8cecc;strokeColor=#b85450;" vertex="1" parent="1">
          <mxGeometry x="1999.9700000000003" y="720" width="40" height="40" as="geometry" />
        </mxCell>
        <mxCell id="7w4zLWjS5kB7MF0S2eMy-477" style="rounded=0;orthogonalLoop=1;jettySize=auto;html=1;entryX=0.5;entryY=1;entryDx=0;entryDy=0;fillColor=#e1d5e7;strokeColor=#9673a6;exitX=1;exitY=0;exitDx=0;exitDy=0;" edge="1" parent="1">
          <mxGeometry relative="1" as="geometry">
            <mxPoint x="1959.9700000000003" y="560" as="sourcePoint" />
            <mxPoint x="2019.9700000000003" y="440" as="targetPoint" />
          </mxGeometry>
        </mxCell>
        <mxCell id="7w4zLWjS5kB7MF0S2eMy-478" value="&lt;font style=&quot;font-size: 11px;&quot;&gt;&lt;span style=&quot;color: light-dark(rgb(97, 53, 131), rgb(237, 237, 237));&quot;&gt;w&lt;sub&gt;o1&lt;/sub&gt;&lt;/span&gt;&lt;/font&gt;" style="edgeLabel;html=1;align=center;verticalAlign=middle;resizable=0;points=[];" vertex="1" connectable="0" parent="7w4zLWjS5kB7MF0S2eMy-477">
          <mxGeometry x="0.4505" y="-1" relative="1" as="geometry">
            <mxPoint x="-34" y="26" as="offset" />
          </mxGeometry>
        </mxCell>
        <mxCell id="7w4zLWjS5kB7MF0S2eMy-479" style="rounded=0;orthogonalLoop=1;jettySize=auto;html=1;entryX=0.5;entryY=1;entryDx=0;entryDy=0;fillColor=#e1d5e7;strokeColor=#9673a6;exitX=1;exitY=0;exitDx=0;exitDy=0;" edge="1" parent="1">
          <mxGeometry relative="1" as="geometry">
            <mxPoint x="2079.9700000000003" y="560" as="sourcePoint" />
            <mxPoint x="2019.9700000000003" y="440" as="targetPoint" />
          </mxGeometry>
        </mxCell>
        <mxCell id="7w4zLWjS5kB7MF0S2eMy-480" value="&lt;span style=&quot;color: light-dark(rgb(97, 53, 131), rgb(237, 237, 237));&quot;&gt;w&lt;sub&gt;o2&lt;/sub&gt;&lt;/span&gt;" style="edgeLabel;html=1;align=center;verticalAlign=middle;resizable=0;points=[];" vertex="1" connectable="0" parent="7w4zLWjS5kB7MF0S2eMy-479">
          <mxGeometry x="-0.2047" y="3" relative="1" as="geometry">
            <mxPoint x="17" y="-13" as="offset" />
          </mxGeometry>
        </mxCell>
        <mxCell id="7w4zLWjS5kB7MF0S2eMy-523" value="" style="endArrow=classic;html=1;rounded=0;fillColor=#f8cecc;strokeColor=#b85450;entryX=0.5;entryY=1;entryDx=0;entryDy=0;" edge="1" parent="1">
          <mxGeometry width="50" height="50" relative="1" as="geometry">
            <mxPoint x="1740" y="400" as="sourcePoint" />
            <mxPoint x="2020" y="760" as="targetPoint" />
            <Array as="points">
              <mxPoint x="1740" y="360" />
              <mxPoint x="1880" y="360" />
              <mxPoint x="1880" y="820" />
              <mxPoint x="2020" y="820" />
            </Array>
          </mxGeometry>
        </mxCell>
        <mxCell id="7w4zLWjS5kB7MF0S2eMy-525" value="&lt;b&gt;&lt;span style=&quot;color: light-dark(rgb(165, 29, 45), rgb(237, 237, 237));&quot;&gt;y&lt;sub&gt;6&lt;/sub&gt;&lt;/span&gt;&lt;/b&gt;" style="text;html=1;align=center;verticalAlign=middle;whiteSpace=wrap;rounded=0;" vertex="1" parent="1">
          <mxGeometry x="1729.97" y="330" width="20" height="30" as="geometry" />
        </mxCell>
        <mxCell id="7w4zLWjS5kB7MF0S2eMy-526" value="&lt;b&gt;&lt;span style=&quot;color: light-dark(rgb(165, 29, 45), rgb(237, 237, 237));&quot;&gt;y&lt;sub&gt;7&lt;/sub&gt;&lt;/span&gt;&lt;/b&gt;" style="text;html=1;align=center;verticalAlign=middle;whiteSpace=wrap;rounded=0;" vertex="1" parent="1">
          <mxGeometry x="2009.97" y="330" width="20" height="30" as="geometry" />
        </mxCell>
        <mxCell id="7w4zLWjS5kB7MF0S2eMy-527" style="rounded=0;orthogonalLoop=1;jettySize=auto;html=1;fillColor=#f8cecc;strokeColor=#b85450;exitX=0.5;exitY=0;exitDx=0;exitDy=0;entryX=0.5;entryY=1;entryDx=0;entryDy=0;" edge="1" parent="1">
          <mxGeometry relative="1" as="geometry">
            <mxPoint x="619.9300000000001" y="720" as="sourcePoint" />
            <mxPoint x="559.9300000000001" y="600" as="targetPoint" />
          </mxGeometry>
        </mxCell>
        <mxCell id="7w4zLWjS5kB7MF0S2eMy-528" value="&lt;font color=&quot;#a51d2d&quot;&gt;w&lt;sub&gt;i1&lt;/sub&gt;&lt;/font&gt;" style="edgeLabel;html=1;align=center;verticalAlign=middle;resizable=0;points=[];fontFamily=Times New Roman;" vertex="1" connectable="0" parent="7w4zLWjS5kB7MF0S2eMy-527">
          <mxGeometry x="-0.2589" relative="1" as="geometry">
            <mxPoint x="-18" y="14" as="offset" />
          </mxGeometry>
        </mxCell>
        <mxCell id="7w4zLWjS5kB7MF0S2eMy-529" style="rounded=0;orthogonalLoop=1;jettySize=auto;html=1;fillColor=#f8cecc;strokeColor=#b85450;exitX=0.5;exitY=0;exitDx=0;exitDy=0;entryX=0.5;entryY=1;entryDx=0;entryDy=0;" edge="1" parent="1">
          <mxGeometry relative="1" as="geometry">
            <mxPoint x="619.9300000000001" y="720" as="sourcePoint" />
            <mxPoint x="679.9300000000001" y="600" as="targetPoint" />
          </mxGeometry>
        </mxCell>
        <mxCell id="7w4zLWjS5kB7MF0S2eMy-530" value="&lt;font color=&quot;#a51d2d&quot;&gt;w&lt;sub&gt;i2&lt;/sub&gt;&lt;/font&gt;" style="edgeLabel;html=1;align=center;verticalAlign=middle;resizable=0;points=[];fontFamily=Times New Roman;" vertex="1" connectable="0" parent="7w4zLWjS5kB7MF0S2eMy-529">
          <mxGeometry x="-0.2589" relative="1" as="geometry">
            <mxPoint x="18" y="14" as="offset" />
          </mxGeometry>
        </mxCell>
        <mxCell id="7w4zLWjS5kB7MF0S2eMy-531" style="rounded=0;orthogonalLoop=1;jettySize=auto;html=1;fillColor=#f8cecc;strokeColor=#b85450;exitX=0.5;exitY=0;exitDx=0;exitDy=0;entryX=0.5;entryY=1;entryDx=0;entryDy=0;" edge="1" parent="1">
          <mxGeometry relative="1" as="geometry">
            <mxPoint x="899.83" y="720" as="sourcePoint" />
            <mxPoint x="839.83" y="600" as="targetPoint" />
          </mxGeometry>
        </mxCell>
        <mxCell id="7w4zLWjS5kB7MF0S2eMy-532" value="&lt;font color=&quot;#a51d2d&quot;&gt;w&lt;sub&gt;i1&lt;/sub&gt;&lt;/font&gt;" style="edgeLabel;html=1;align=center;verticalAlign=middle;resizable=0;points=[];fontFamily=Times New Roman;" vertex="1" connectable="0" parent="7w4zLWjS5kB7MF0S2eMy-531">
          <mxGeometry x="-0.2589" relative="1" as="geometry">
            <mxPoint x="-18" y="14" as="offset" />
          </mxGeometry>
        </mxCell>
        <mxCell id="7w4zLWjS5kB7MF0S2eMy-533" style="rounded=0;orthogonalLoop=1;jettySize=auto;html=1;fillColor=#f8cecc;strokeColor=#b85450;exitX=0.5;exitY=0;exitDx=0;exitDy=0;entryX=0.5;entryY=1;entryDx=0;entryDy=0;" edge="1" parent="1">
          <mxGeometry relative="1" as="geometry">
            <mxPoint x="899.83" y="720" as="sourcePoint" />
            <mxPoint x="959.83" y="600" as="targetPoint" />
          </mxGeometry>
        </mxCell>
        <mxCell id="7w4zLWjS5kB7MF0S2eMy-534" value="&lt;font color=&quot;#a51d2d&quot;&gt;w&lt;sub&gt;i2&lt;/sub&gt;&lt;/font&gt;" style="edgeLabel;html=1;align=center;verticalAlign=middle;resizable=0;points=[];fontFamily=Times New Roman;" vertex="1" connectable="0" parent="7w4zLWjS5kB7MF0S2eMy-533">
          <mxGeometry x="-0.2589" relative="1" as="geometry">
            <mxPoint x="18" y="14" as="offset" />
          </mxGeometry>
        </mxCell>
        <mxCell id="7w4zLWjS5kB7MF0S2eMy-535" style="rounded=0;orthogonalLoop=1;jettySize=auto;html=1;fillColor=#f8cecc;strokeColor=#b85450;exitX=0.5;exitY=0;exitDx=0;exitDy=0;entryX=0.5;entryY=1;entryDx=0;entryDy=0;" edge="1" parent="1">
          <mxGeometry relative="1" as="geometry">
            <mxPoint x="1179.9" y="720" as="sourcePoint" />
            <mxPoint x="1119.9" y="600" as="targetPoint" />
          </mxGeometry>
        </mxCell>
        <mxCell id="7w4zLWjS5kB7MF0S2eMy-536" value="&lt;font color=&quot;#a51d2d&quot;&gt;w&lt;sub&gt;i1&lt;/sub&gt;&lt;/font&gt;" style="edgeLabel;html=1;align=center;verticalAlign=middle;resizable=0;points=[];fontFamily=Times New Roman;" vertex="1" connectable="0" parent="7w4zLWjS5kB7MF0S2eMy-535">
          <mxGeometry x="-0.2589" relative="1" as="geometry">
            <mxPoint x="-18" y="14" as="offset" />
          </mxGeometry>
        </mxCell>
        <mxCell id="7w4zLWjS5kB7MF0S2eMy-537" style="rounded=0;orthogonalLoop=1;jettySize=auto;html=1;fillColor=#f8cecc;strokeColor=#b85450;exitX=0.5;exitY=0;exitDx=0;exitDy=0;entryX=0.5;entryY=1;entryDx=0;entryDy=0;" edge="1" parent="1">
          <mxGeometry relative="1" as="geometry">
            <mxPoint x="1179.9" y="720" as="sourcePoint" />
            <mxPoint x="1239.9" y="600" as="targetPoint" />
          </mxGeometry>
        </mxCell>
        <mxCell id="7w4zLWjS5kB7MF0S2eMy-538" value="&lt;font color=&quot;#a51d2d&quot;&gt;w&lt;sub&gt;i2&lt;/sub&gt;&lt;/font&gt;" style="edgeLabel;html=1;align=center;verticalAlign=middle;resizable=0;points=[];fontFamily=Times New Roman;" vertex="1" connectable="0" parent="7w4zLWjS5kB7MF0S2eMy-537">
          <mxGeometry x="-0.2589" relative="1" as="geometry">
            <mxPoint x="18" y="14" as="offset" />
          </mxGeometry>
        </mxCell>
        <mxCell id="7w4zLWjS5kB7MF0S2eMy-539" style="rounded=0;orthogonalLoop=1;jettySize=auto;html=1;fillColor=#f8cecc;strokeColor=#b85450;exitX=0.5;exitY=0;exitDx=0;exitDy=0;entryX=0.5;entryY=1;entryDx=0;entryDy=0;" edge="1" parent="1">
          <mxGeometry relative="1" as="geometry">
            <mxPoint x="1459.97" y="720" as="sourcePoint" />
            <mxPoint x="1399.97" y="600" as="targetPoint" />
          </mxGeometry>
        </mxCell>
        <mxCell id="7w4zLWjS5kB7MF0S2eMy-540" value="&lt;font color=&quot;#a51d2d&quot;&gt;w&lt;sub&gt;i1&lt;/sub&gt;&lt;/font&gt;" style="edgeLabel;html=1;align=center;verticalAlign=middle;resizable=0;points=[];fontFamily=Times New Roman;" vertex="1" connectable="0" parent="7w4zLWjS5kB7MF0S2eMy-539">
          <mxGeometry x="-0.2589" relative="1" as="geometry">
            <mxPoint x="-18" y="14" as="offset" />
          </mxGeometry>
        </mxCell>
        <mxCell id="7w4zLWjS5kB7MF0S2eMy-541" style="rounded=0;orthogonalLoop=1;jettySize=auto;html=1;fillColor=#f8cecc;strokeColor=#b85450;exitX=0.5;exitY=0;exitDx=0;exitDy=0;entryX=0.5;entryY=1;entryDx=0;entryDy=0;" edge="1" parent="1">
          <mxGeometry relative="1" as="geometry">
            <mxPoint x="1459.97" y="720" as="sourcePoint" />
            <mxPoint x="1519.97" y="600" as="targetPoint" />
          </mxGeometry>
        </mxCell>
        <mxCell id="7w4zLWjS5kB7MF0S2eMy-542" value="&lt;font color=&quot;#a51d2d&quot;&gt;w&lt;sub&gt;i2&lt;/sub&gt;&lt;/font&gt;" style="edgeLabel;html=1;align=center;verticalAlign=middle;resizable=0;points=[];fontFamily=Times New Roman;" vertex="1" connectable="0" parent="7w4zLWjS5kB7MF0S2eMy-541">
          <mxGeometry x="-0.2589" relative="1" as="geometry">
            <mxPoint x="18" y="14" as="offset" />
          </mxGeometry>
        </mxCell>
      </root>
    </mxGraphModel>
  </diagram>
</mxfile>
